<svg  xmlns="http://www.w3.org/2000/svg" xmlns:xlink="http://www.w3.org/1999/xlink">
  <symbol id="logo" viewBox="0 0 125 25">
    <path
      d="M70.8108 0.390625H64.2891V24.0625H70.8108V0.390625Z"
      fill="#B1B1B1"
    />
    <path
      d="M80.2011 6.95312H73.6016V24.1406H80.2011V6.95312Z"
      fill="#B1B1B1"
    />
    <path
      d="M80.2011 0.390625H73.6016V4.92187H80.2011V0.390625Z"
      fill="#B1B1B1"
    />
    <path
      d="M0 19.375L6.52174 18.75C6.75466 19.5312 7.14286 20.0781 7.6087 20.3906C8.07453 20.7031 9.70497 21.0156 10.559 21.0156C11.413 21.0156 11.1025 20.7031 11.5683 20.3906C11.9565 20.0781 12.1118 19.7656 12.1118 19.375C12.1118 18.9062 11.8789 18.5156 11.3354 18.2812C10.9472 18.125 10.0155 17.8906 8.54037 17.5781C6.28882 17.1875 4.65839 16.7969 3.80435 16.4844C2.95031 16.1719 2.17391 15.5469 1.5528 14.7656C0.931677 13.9844 0.621118 13.0469 0.621118 12.0312C0.621118 10.8594 0.931677 9.92187 1.63043 9.14062C2.25155 8.35937 3.18323 7.73438 4.34783 7.26563C5.51242 6.875 7.06522 6.64062 8.92857 6.64062C10.9472 6.64062 12.5 6.79688 13.4317 7.10938C14.441 7.42188 15.2174 7.89062 15.8385 8.51562C16.4596 9.14062 17.0031 10.0781 17.4689 11.1719L11.2578 11.7969C11.1025 11.25 10.8696 10.8594 10.4814 10.5469C9.93789 10.2344 9.39441 10 8.61801 10C7.91926 10 7.37578 10.1562 6.98758 10.3906C6.67702 10.625 6.52174 10.9375 6.52174 11.3281C6.52174 11.7187 6.75466 12.0312 7.14286 12.2656C7.53106 12.5 8.54037 12.6562 9.93789 12.8906C12.1118 13.125 13.7422 13.5156 14.7516 13.9062C15.8385 14.375 16.6149 15 17.1584 15.7812C17.7019 16.5625 18.0124 17.5 18.0124 18.5156C18.0124 19.5312 17.7019 20.4687 17.1584 21.4062C16.5373 22.3437 15.6056 23.125 14.3634 23.6719C13.1211 24.2187 11.3354 24.5312 9.16149 24.5312C6.0559 24.5312 3.80435 24.0625 2.48447 23.2031C1.24224 22.2656 0.388199 21.0156 0 19.375Z"
      fill="#B01736"
    />
    <path
      d="M21.8947 22.4219C23.6027 23.8281 25.7766 24.5312 28.5717 24.5312C31.6773 24.5312 34.0841 23.6719 35.7922 22.0312C37.5002 20.3125 38.4319 18.2031 38.4319 15.5469C38.4319 13.2031 37.7332 11.25 36.3356 9.60938C34.6276 7.57813 31.9878 6.64062 28.5717 6.64062C25.5437 6.64062 23.2145 7.5 21.4288 9.21875C19.6431 10.9375 18.7891 13.0469 18.7891 15.7031C18.7891 18.3594 19.876 20.625 21.8947 22.4219ZM26.3201 12.1094C26.9412 11.3281 27.7176 11.0156 28.7269 11.0156C29.6586 11.0156 30.3574 11.4062 30.9785 12.1094C31.5996 12.8125 31.9102 13.9844 31.9102 15.4687C31.9102 17.1094 31.5996 18.2812 30.9785 18.9844C30.3574 19.6875 29.581 20.0781 28.6493 20.0781C27.7176 20.0781 26.9412 19.6875 26.3201 18.9844C25.699 18.2031 25.3884 17.1094 25.3884 15.5469C25.3884 13.9844 25.699 12.8125 26.3201 12.1094Z"
      fill="#B01736"
    />
    <path
      d="M47.2088 6.95312H50.3144V11.7969H47.2088V24.1406H40.6095V11.7969H38.125V6.95312H40.6095V6.17187C40.6095 5.46875 40.6871 4.6875 40.8424 3.82812C40.9977 2.96875 41.3082 2.26562 41.6964 1.79687C42.1623 1.25 42.7834 0.78125 43.4821 0.46875C44.2585 0.15625 45.3455 0 46.743 0C47.9076 0 49.538 0.15625 51.7896 0.390625L51.0132 4.375C50.2368 4.21875 49.6157 4.21875 49.0722 4.21875C48.4511 4.21875 48.0629 4.29688 47.83 4.53125C47.5971 4.6875 47.4418 5 47.3641 5.39062C47.2865 5.625 47.2088 6.17187 47.2088 6.95312Z"
      fill="#B01736"
    />
    <path
      d="M59.0067 11.7969V17.8906C59.0067 18.5938 59.0843 19.1406 59.2396 19.375C59.4725 19.7656 59.8607 19.9219 60.3266 19.9219C60.7924 19.9219 61.4912 19.7656 62.3452 19.5312L62.811 24.0625C61.1806 24.4531 59.7055 24.6094 58.3079 24.6094C56.6775 24.6094 55.5129 24.375 54.7365 23.9844C53.9601 23.5938 53.4166 22.8906 53.0284 22.0312C52.6402 21.1719 52.485 19.7656 52.485 17.8906V11.875H50.0781V6.95312H52.485V3.82812L59.0067 0.390625V6.95312V11.7969Z"
      fill="#B01736"
    />
    <path
      d="M82.687 6.95312H88.8206V9.76562C89.7522 8.59375 90.6839 7.8125 91.6156 7.34375C92.5473 6.875 93.7119 6.64062 95.0317 6.64062C96.8175 6.64062 98.2926 7.1875 99.3019 8.28125C100.311 9.375 100.855 11.0156 100.855 13.2812V24.2188H94.2553V14.6875C94.2553 13.5937 94.0224 12.8125 93.6342 12.4219C93.246 11.9531 92.7025 11.7188 91.9261 11.7188C91.1497 11.7188 90.5286 12.0313 89.9852 12.6563C89.5193 13.2813 89.2088 14.375 89.2088 15.9375V24.2188H82.6094V6.95312H82.687Z"
      fill="#B1B1B1"
    />
    <path
      d="M121.97 16.4062C121.97 14.1406 121.582 12.2656 120.884 10.8594C120.107 9.45312 119.098 8.35937 117.623 7.57812C116.225 6.79687 114.284 6.48438 111.877 6.48438C108.849 6.48438 106.52 7.34375 104.812 8.98437C103.104 10.625 102.25 12.8125 102.25 15.4688C102.25 17.3438 102.638 18.9844 103.492 20.3906C104.346 21.7969 105.433 22.8125 106.675 23.4375C107.995 24.0625 109.781 24.375 112.033 24.375C114.595 24.375 116.613 23.9844 118.011 23.2812C119.408 22.5 120.573 21.3281 121.582 19.6094L115.138 18.9844C114.75 19.5312 114.362 19.8438 113.974 20.0781C113.43 20.3906 112.809 20.5469 112.188 20.5469C111.179 20.5469 110.402 20.1562 109.703 19.4531C109.238 18.9062 109.005 18.125 108.849 17.1094H121.893V16.4062H121.97ZM108.927 14.0625C109.005 13.0469 109.315 12.2656 109.703 11.7187C110.325 10.8594 111.179 10.4688 112.188 10.4688C113.12 10.4688 113.818 10.7812 114.362 11.3281C114.905 11.875 115.216 12.8125 115.371 14.0625H108.927Z"
      fill="#B1B1B1"
    />
    <path
      d="M30.0475 2.65557C37.5009 3.43682 40.5288 4.13995 47.5164 6.01495C53.3394 7.57745 62.5785 6.87432 62.5785 6.87432V11.7181C58.9295 12.1868 51.0878 12.0306 44.5661 9.60868C32.8425 5.38995 27.563 4.53057 21.3518 4.06182C12.8114 3.43682 2.71826 4.76495 2.71826 4.76495L2.64062 3.90557C2.64062 3.90557 17.2369 1.32745 30.0475 2.65557Z"
      fill="#B1B1B1"
    />
    <path
      d="M121.741 3.59375H122.052C122.518 3.59375 122.595 3.35937 122.595 3.20312C122.595 2.89062 122.13 2.89062 122.052 2.89062H121.741V3.59375ZM122.285 2.34375C122.984 2.34375 123.294 2.73437 123.294 3.125C123.294 3.51562 122.984 3.75 122.673 3.82812C122.828 3.90625 122.984 4.0625 122.984 4.14062L123.449 5.3125H122.673L122.285 4.375C122.285 4.29687 122.13 4.14062 121.897 4.14062H121.741V5.3125H120.965V2.34375H122.285ZM122.052 6.09375C123.294 6.09375 124.303 5.07812 124.303 3.82812C124.303 2.57812 123.294 1.5625 122.052 1.5625C120.81 1.5625 119.8 2.57812 119.8 3.82812C119.8 5.07812 120.81 6.09375 122.052 6.09375ZM122.052 0.859375C123.682 0.859375 125.002 2.1875 125.002 3.82812C125.002 5.46875 123.682 6.79687 122.052 6.79687C120.421 6.79687 119.102 5.46875 119.102 3.82812C119.179 2.1875 120.421 0.859375 122.052 0.859375Z"
      fill="#B1B1B1"
    />
  </symbol>

  <symbol id="dms" viewBox="0 0 50 50" fill="none">
    <path
      d="M5.03413 15.3129C5.28021 13.3072 6.9836 11.8 9.00436 11.8H42.0023C44.0695 11.8 45.7961 13.375 45.9855 15.4335L48.5982 43.8281C48.8139 46.172 46.9689 48.1946 44.615 48.1946H5.52074C3.1184 48.1946 1.25796 46.0919 1.5505 43.7075L5.03413 15.3129Z"
      stroke="currentColor"
      stroke-width="2"
    />
    <path
      d="M25 20.6367V39.3566"
      stroke="currentColor"
      stroke-width="2"
      stroke-linecap="round"
    />
    <path
      d="M15.1523 29.9971H34.8447"
      stroke="currentColor"
      stroke-width="2"
      stroke-linecap="round"
    />
    <path
      d="M34.5984 11.7996V5.59961C34.5984 3.39047 32.8076 1.59961 30.5984 1.59961H19.3984C17.1893 1.59961 15.3984 3.39047 15.3984 5.59961V11.7996"
      stroke="currentColor"
      stroke-width="2"
    />
  </symbol>

  <symbol id="printer" viewBox="0 0 48 48">
    <path
      fill="none"
      d="M36.7234 12.7466V1H11.2766V12.7466M9.32055 38.418L1 38.4253V18.6117C1 15.3726 3.62914 12.7467 6.87234 12.7467H41.1277C44.3709 12.7467 47 15.3726 47 18.6117V38.4253L38.6822 38.418M9.32055 29.8361H38.6822V47H9.32055V29.8361Z"
      stroke="currentColor"
      stroke-width="2"
    />
  </symbol>

  <symbol id="house" viewBox="0 0 48 48" fill="none">
    <rect
      x="26.9375"
      y="27.8945"
      width="9"
      height="9"
      rx="1"
      stroke="currentColor"
      stroke-width="2"
    />
    <path
      d="M8.14844 21.2354V35.1177V46.0001C8.14844 46.5524 8.59615 47.0001 9.14844 47.0001H38.9329C39.4852 47.0001 39.9329 46.5524 39.9329 46.0001V21.2354M22.1484 47.0001V28.8952C22.1484 28.3429 21.7007 27.8952 21.1484 27.8952H14.1484C13.5962 27.8952 13.1484 28.3429 13.1484 28.8952V47.0001"
      stroke="currentColor"
      stroke-width="2"
    />
    <path
      d="M2.44763 21H45.5524C46.915 21 47.5201 19.3298 46.4597 18.4956L24.6194 1.31241C24.0844 0.891515 23.3193 0.8964 22.79 1.32409L1.52562 18.5073C0.483846 19.3491 1.09448 21 2.44763 21Z"
      stroke="currentColor"
      stroke-width="2"
    />
  </symbol>

  <symbol id="sport" viewBox="0 0 48 48" fill="none">
    <mask
      id="path-1-outside-1_1_388"
      maskUnits="userSpaceOnUse"
      x="-6.20328"
      y="-6.24183"
      width="60.1041"
      height="60.1041"
      fill="black"
    >
      <rect
        fill="white"
        x="-6.20328"
        y="-6.24183"
        width="60.1041"
        height="60.1041"
      />
      <path
        fill-rule="evenodd"
        clip-rule="evenodd"
        d="M1.70511 28.935L2.44958 28.1906C3.03256 27.6076 3.78468 27.2945 4.55004 27.2547L2.0271 24.7318C1.40366 24.1084 1.08863 23.2859 1.08794 22.4642L1.08695 22.4552L1.08562 22.4539C1.08794 21.6272 1.40031 20.8028 2.02538 20.1777L3.42111 18.782C4.04951 18.1536 4.87487 17.8403 5.69897 17.8406C6.52337 17.8392 7.34846 18.1536 7.97616 18.7813L14.8005 25.6056L25.6057 14.8004L18.7824 7.97648C18.156 7.35006 17.8433 6.52669 17.841 5.70197L17.8426 5.70031L17.8429 5.69733L17.8423 5.69136C17.8456 4.86697 18.1577 4.04621 18.7811 3.42276L20.1789 2.02499C20.8066 1.39724 21.631 1.08484 22.4545 1.08582C23.2782 1.08516 24.1039 1.3989 24.7316 2.0266L27.2553 4.55022C27.2967 3.78519 27.6078 3.03172 28.1891 2.45045L28.9335 1.70598C29.5613 1.07824 30.385 0.765181 31.2107 0.765206C32.0345 0.764542 32.8589 1.07693 33.4869 1.70497L36.7188 4.93685L37.4798 5.69534L42.3051 10.5207L43.0633 11.2814L46.2972 14.5153C46.9216 15.1398 47.2356 15.9658 47.2357 16.7902L47.2367 16.7945C47.2357 17.6166 46.9219 18.4424 46.2955 19.0688L45.551 19.8133C44.9697 20.3946 44.217 20.707 43.4513 20.7471L45.9749 23.2707C46.6016 23.8974 46.9137 24.7215 46.9147 25.5469L46.9133 25.5482C46.9123 26.3749 46.5997 27.1983 45.9748 27.8231L44.5771 29.2208C43.949 29.8489 43.1253 30.162 42.2992 30.1623C41.4761 30.1623 40.6527 29.8489 40.0247 29.2209L33.6803 22.8758L22.8759 33.6802L29.221 40.0253C29.8478 40.652 30.1605 41.4754 30.1608 42.3014L30.1591 42.3031C30.1604 43.1275 29.846 43.9526 29.2194 44.5792L27.8236 45.975C27.1969 46.6017 26.3721 46.9158 25.5475 46.9147C24.7244 46.9147 23.8993 46.603 23.2713 45.975L20.7477 43.4513C20.7066 44.218 20.3955 44.9695 19.8125 45.5525L19.068 46.2969C18.4416 46.9234 17.6159 47.2371 16.7935 47.2384C15.9691 47.237 15.1428 46.9233 14.5167 46.2972L11.2828 43.0633L10.5231 42.3031L5.69738 37.4781L4.93763 36.7189L1.70575 33.487C1.08231 32.8636 0.769642 32.0422 0.766916 31.2184L0.766917 31.2131L0.765259 31.2114L0.766917 31.2098C0.767248 30.3837 1.08097 29.5592 1.70511 28.935ZM2.78561 20.9358L4.18134 19.5401C4.60051 19.1209 5.15032 18.9133 5.69981 18.9143C6.25063 18.9127 6.80044 19.1222 7.21828 19.5401L28.4611 40.7829C28.8803 41.2021 29.0889 41.7509 29.0902 42.298L29.0885 42.303C29.0895 42.8512 28.8786 43.399 28.4595 43.8182L27.0637 45.2139C26.6462 45.6314 26.0961 45.8413 25.5469 45.8413C24.9968 45.8403 24.4476 45.6347 24.0284 45.2156L2.78561 23.9727C2.36711 23.5542 2.15686 23.0031 2.15985 22.4543L2.15819 22.4526C2.15853 21.9038 2.36678 21.3546 2.78561 20.9358ZM2.4645 29.6938L3.20897 28.9493C3.62616 28.5321 4.17663 28.3212 4.72678 28.3229C5.27626 28.3225 5.8264 28.5305 6.24424 28.9483L19.0538 41.7578C19.4706 42.1747 19.6795 42.7238 19.6815 43.2743L19.6799 43.276C19.6795 43.8248 19.4693 44.3753 19.0521 44.7924L18.3076 45.5369C17.8905 45.9541 17.3413 46.163 16.7925 46.1633C16.2404 46.163 15.6912 45.9547 15.2741 45.5375L2.46452 32.728C2.04503 32.3085 1.83645 31.759 1.83612 31.2135L1.83678 31.2076C1.83543 30.6598 2.04733 30.1109 2.4645 29.6938ZM28.9497 3.20853L29.6941 2.46405C30.1113 2.04687 30.6615 1.83631 31.212 1.83763C31.7608 1.83795 32.3116 2.04521 32.7294 2.46305L45.5389 15.2726C45.9558 15.6894 46.1647 16.2386 46.1667 16.7891L46.165 16.7907C46.1647 17.3396 45.9545 17.89 45.5373 18.3072L44.7928 19.0517C44.3753 19.4692 43.8252 19.6791 43.2763 19.6794C42.7259 19.6774 42.1767 19.4692 41.7595 19.052L28.95 6.24247C28.5305 5.82299 28.3203 5.27515 28.3216 4.72799L28.3206 4.72368C28.3206 4.17451 28.5318 3.62636 28.9497 3.20853ZM19.5405 4.18085L20.9383 2.78308C21.3554 2.36594 21.9052 2.15834 22.455 2.159C23.0042 2.15901 23.5557 2.36693 23.9735 2.78477L41.0005 19.8118L45.2167 24.0273C45.6358 24.4464 45.8441 24.9956 45.8457 25.5424L45.8441 25.5474C45.8438 26.0969 45.6335 26.644 45.2164 27.0612L43.8186 28.459C43.4011 28.8765 42.8506 29.0867 42.3018 29.0864C41.7516 29.0854 41.2025 28.8798 40.7833 28.4606L19.5405 7.21779C19.122 6.79928 18.9114 6.24847 18.9131 5.70098L18.9131 5.69766C18.9124 5.14982 19.1227 4.59869 19.5405 4.18085ZM15.739 26.1843L21.052 20.8713L26.3651 15.5582L32.922 22.1152L22.296 32.7413L15.739 26.1843Z"
      />
    </mask>
    <path
      fill-rule="evenodd"
      clip-rule="evenodd"
      d="M1.70511 28.935L2.44958 28.1906C3.03256 27.6076 3.78468 27.2945 4.55004 27.2547L2.0271 24.7318C1.40366 24.1084 1.08863 23.2859 1.08794 22.4642L1.08695 22.4552L1.08562 22.4539C1.08794 21.6272 1.40031 20.8028 2.02538 20.1777L3.42111 18.782C4.04951 18.1536 4.87487 17.8403 5.69897 17.8406C6.52337 17.8392 7.34846 18.1536 7.97616 18.7813L14.8005 25.6056L25.6057 14.8004L18.7824 7.97648C18.156 7.35006 17.8433 6.52669 17.841 5.70197L17.8426 5.70031L17.8429 5.69733L17.8423 5.69136C17.8456 4.86697 18.1577 4.04621 18.7811 3.42276L20.1789 2.02499C20.8066 1.39724 21.631 1.08484 22.4545 1.08582C23.2782 1.08516 24.1039 1.3989 24.7316 2.0266L27.2553 4.55022C27.2967 3.78519 27.6078 3.03172 28.1891 2.45045L28.9335 1.70598C29.5613 1.07824 30.385 0.765181 31.2107 0.765206C32.0345 0.764542 32.8589 1.07693 33.4869 1.70497L36.7188 4.93685L37.4798 5.69534L42.3051 10.5207L43.0633 11.2814L46.2972 14.5153C46.9216 15.1398 47.2356 15.9658 47.2357 16.7902L47.2367 16.7945C47.2357 17.6166 46.9219 18.4424 46.2955 19.0688L45.551 19.8133C44.9697 20.3946 44.217 20.707 43.4513 20.7471L45.9749 23.2707C46.6016 23.8974 46.9137 24.7215 46.9147 25.5469L46.9133 25.5482C46.9123 26.3749 46.5997 27.1983 45.9748 27.8231L44.5771 29.2208C43.949 29.8489 43.1253 30.162 42.2992 30.1623C41.4761 30.1623 40.6527 29.8489 40.0247 29.2209L33.6803 22.8758L22.8759 33.6802L29.221 40.0253C29.8478 40.652 30.1605 41.4754 30.1608 42.3014L30.1591 42.3031C30.1604 43.1275 29.846 43.9526 29.2194 44.5792L27.8236 45.975C27.1969 46.6017 26.3721 46.9158 25.5475 46.9147C24.7244 46.9147 23.8993 46.603 23.2713 45.975L20.7477 43.4513C20.7066 44.218 20.3955 44.9695 19.8125 45.5525L19.068 46.2969C18.4416 46.9234 17.6159 47.2371 16.7935 47.2384C15.9691 47.237 15.1428 46.9233 14.5167 46.2972L11.2828 43.0633L10.5231 42.3031L5.69738 37.4781L4.93763 36.7189L1.70575 33.487C1.08231 32.8636 0.769642 32.0422 0.766916 31.2184L0.766917 31.2131L0.765259 31.2114L0.766917 31.2098C0.767248 30.3837 1.08097 29.5592 1.70511 28.935ZM2.78561 20.9358L4.18134 19.5401C4.60051 19.1209 5.15032 18.9133 5.69981 18.9143C6.25063 18.9127 6.80044 19.1222 7.21828 19.5401L28.4611 40.7829C28.8803 41.2021 29.0889 41.7509 29.0902 42.298L29.0885 42.303C29.0895 42.8512 28.8786 43.399 28.4595 43.8182L27.0637 45.2139C26.6462 45.6314 26.0961 45.8413 25.5469 45.8413C24.9968 45.8403 24.4476 45.6347 24.0284 45.2156L2.78561 23.9727C2.36711 23.5542 2.15686 23.0031 2.15985 22.4543L2.15819 22.4526C2.15853 21.9038 2.36678 21.3546 2.78561 20.9358ZM2.4645 29.6938L3.20897 28.9493C3.62616 28.5321 4.17663 28.3212 4.72678 28.3229C5.27626 28.3225 5.8264 28.5305 6.24424 28.9483L19.0538 41.7578C19.4706 42.1747 19.6795 42.7238 19.6815 43.2743L19.6799 43.276C19.6795 43.8248 19.4693 44.3753 19.0521 44.7924L18.3076 45.5369C17.8905 45.9541 17.3413 46.163 16.7925 46.1633C16.2404 46.163 15.6912 45.9547 15.2741 45.5375L2.46452 32.728C2.04503 32.3085 1.83645 31.759 1.83612 31.2135L1.83678 31.2076C1.83543 30.6598 2.04733 30.1109 2.4645 29.6938ZM28.9497 3.20853L29.6941 2.46405C30.1113 2.04687 30.6615 1.83631 31.212 1.83763C31.7608 1.83795 32.3116 2.04521 32.7294 2.46305L45.5389 15.2726C45.9558 15.6894 46.1647 16.2386 46.1667 16.7891L46.165 16.7907C46.1647 17.3396 45.9545 17.89 45.5373 18.3072L44.7928 19.0517C44.3753 19.4692 43.8252 19.6791 43.2763 19.6794C42.7259 19.6774 42.1767 19.4692 41.7595 19.052L28.95 6.24247C28.5305 5.82299 28.3203 5.27515 28.3216 4.72799L28.3206 4.72368C28.3206 4.17451 28.5318 3.62636 28.9497 3.20853ZM19.5405 4.18085L20.9383 2.78308C21.3554 2.36594 21.9052 2.15834 22.455 2.159C23.0042 2.15901 23.5557 2.36693 23.9735 2.78477L41.0005 19.8118L45.2167 24.0273C45.6358 24.4464 45.8441 24.9956 45.8457 25.5424L45.8441 25.5474C45.8438 26.0969 45.6335 26.644 45.2164 27.0612L43.8186 28.459C43.4011 28.8765 42.8506 29.0867 42.3018 29.0864C41.7516 29.0854 41.2025 28.8798 40.7833 28.4606L19.5405 7.21779C19.122 6.79928 18.9114 6.24847 18.9131 5.70098L18.9131 5.69766C18.9124 5.14982 19.1227 4.59869 19.5405 4.18085ZM15.739 26.1843L21.052 20.8713L26.3651 15.5582L32.922 22.1152L22.296 32.7413L15.739 26.1843Z"
      fill="currentColor"
    />
    <path
      fill-rule="evenodd"
      clip-rule="evenodd"
      d="M1.70511 28.935L2.44958 28.1906C3.03256 27.6076 3.78468 27.2945 4.55004 27.2547L2.0271 24.7318C1.40366 24.1084 1.08863 23.2859 1.08794 22.4642L1.08695 22.4552L1.08562 22.4539C1.08794 21.6272 1.40031 20.8028 2.02538 20.1777L3.42111 18.782C4.04951 18.1536 4.87487 17.8403 5.69897 17.8406C6.52337 17.8392 7.34846 18.1536 7.97616 18.7813L14.8005 25.6056L25.6057 14.8004L18.7824 7.97648C18.156 7.35006 17.8433 6.52669 17.841 5.70197L17.8426 5.70031L17.8429 5.69733L17.8423 5.69136C17.8456 4.86697 18.1577 4.04621 18.7811 3.42276L20.1789 2.02499C20.8066 1.39724 21.631 1.08484 22.4545 1.08582C23.2782 1.08516 24.1039 1.3989 24.7316 2.0266L27.2553 4.55022C27.2967 3.78519 27.6078 3.03172 28.1891 2.45045L28.9335 1.70598C29.5613 1.07824 30.385 0.765181 31.2107 0.765206C32.0345 0.764542 32.8589 1.07693 33.4869 1.70497L36.7188 4.93685L37.4798 5.69534L42.3051 10.5207L43.0633 11.2814L46.2972 14.5153C46.9216 15.1398 47.2356 15.9658 47.2357 16.7902L47.2367 16.7945C47.2357 17.6166 46.9219 18.4424 46.2955 19.0688L45.551 19.8133C44.9697 20.3946 44.217 20.707 43.4513 20.7471L45.9749 23.2707C46.6016 23.8974 46.9137 24.7215 46.9147 25.5469L46.9133 25.5482C46.9123 26.3749 46.5997 27.1983 45.9748 27.8231L44.5771 29.2208C43.949 29.8489 43.1253 30.162 42.2992 30.1623C41.4761 30.1623 40.6527 29.8489 40.0247 29.2209L33.6803 22.8758L22.8759 33.6802L29.221 40.0253C29.8478 40.652 30.1605 41.4754 30.1608 42.3014L30.1591 42.3031C30.1604 43.1275 29.846 43.9526 29.2194 44.5792L27.8236 45.975C27.1969 46.6017 26.3721 46.9158 25.5475 46.9147C24.7244 46.9147 23.8993 46.603 23.2713 45.975L20.7477 43.4513C20.7066 44.218 20.3955 44.9695 19.8125 45.5525L19.068 46.2969C18.4416 46.9234 17.6159 47.2371 16.7935 47.2384C15.9691 47.237 15.1428 46.9233 14.5167 46.2972L11.2828 43.0633L10.5231 42.3031L5.69738 37.4781L4.93763 36.7189L1.70575 33.487C1.08231 32.8636 0.769642 32.0422 0.766916 31.2184L0.766917 31.2131L0.765259 31.2114L0.766917 31.2098C0.767248 30.3837 1.08097 29.5592 1.70511 28.935ZM2.78561 20.9358L4.18134 19.5401C4.60051 19.1209 5.15032 18.9133 5.69981 18.9143C6.25063 18.9127 6.80044 19.1222 7.21828 19.5401L28.4611 40.7829C28.8803 41.2021 29.0889 41.7509 29.0902 42.298L29.0885 42.303C29.0895 42.8512 28.8786 43.399 28.4595 43.8182L27.0637 45.2139C26.6462 45.6314 26.0961 45.8413 25.5469 45.8413C24.9968 45.8403 24.4476 45.6347 24.0284 45.2156L2.78561 23.9727C2.36711 23.5542 2.15686 23.0031 2.15985 22.4543L2.15819 22.4526C2.15853 21.9038 2.36678 21.3546 2.78561 20.9358ZM2.4645 29.6938L3.20897 28.9493C3.62616 28.5321 4.17663 28.3212 4.72678 28.3229C5.27626 28.3225 5.8264 28.5305 6.24424 28.9483L19.0538 41.7578C19.4706 42.1747 19.6795 42.7238 19.6815 43.2743L19.6799 43.276C19.6795 43.8248 19.4693 44.3753 19.0521 44.7924L18.3076 45.5369C17.8905 45.9541 17.3413 46.163 16.7925 46.1633C16.2404 46.163 15.6912 45.9547 15.2741 45.5375L2.46452 32.728C2.04503 32.3085 1.83645 31.759 1.83612 31.2135L1.83678 31.2076C1.83543 30.6598 2.04733 30.1109 2.4645 29.6938ZM28.9497 3.20853L29.6941 2.46405C30.1113 2.04687 30.6615 1.83631 31.212 1.83763C31.7608 1.83795 32.3116 2.04521 32.7294 2.46305L45.5389 15.2726C45.9558 15.6894 46.1647 16.2386 46.1667 16.7891L46.165 16.7907C46.1647 17.3396 45.9545 17.89 45.5373 18.3072L44.7928 19.0517C44.3753 19.4692 43.8252 19.6791 43.2763 19.6794C42.7259 19.6774 42.1767 19.4692 41.7595 19.052L28.95 6.24247C28.5305 5.82299 28.3203 5.27515 28.3216 4.72799L28.3206 4.72368C28.3206 4.17451 28.5318 3.62636 28.9497 3.20853ZM19.5405 4.18085L20.9383 2.78308C21.3554 2.36594 21.9052 2.15834 22.455 2.159C23.0042 2.15901 23.5557 2.36693 23.9735 2.78477L41.0005 19.8118L45.2167 24.0273C45.6358 24.4464 45.8441 24.9956 45.8457 25.5424L45.8441 25.5474C45.8438 26.0969 45.6335 26.644 45.2164 27.0612L43.8186 28.459C43.4011 28.8765 42.8506 29.0867 42.3018 29.0864C41.7516 29.0854 41.2025 28.8798 40.7833 28.4606L19.5405 7.21779C19.122 6.79928 18.9114 6.24847 18.9131 5.70098L18.9131 5.69766C18.9124 5.14982 19.1227 4.59869 19.5405 4.18085ZM15.739 26.1843L21.052 20.8713L26.3651 15.5582L32.922 22.1152L22.296 32.7413L15.739 26.1843Z"
      stroke="currentColor"
      stroke-width="0.8"
      mask="url(#path-1-outside-1_1_388)"
    />
  </symbol>

  <symbol id="phone" viewBox="0 0 48 48" fill="none">
    <rect
      x="8.19922"
      y="1"
      width="31.6"
      height="46"
      rx="4"
      stroke="currentColor"
      stroke-width="2"
    />
    <path
      d="M15.3984 1H32.5984V5C32.5984 6.10457 31.703 7 30.5984 7H17.3984C16.2939 7 15.3984 6.10457 15.3984 5V1Z"
      stroke="currentColor"
      stroke-width="2"
    />
    <path
      d="M19.1992 40H28.7992"
      stroke="currentColor"
      stroke-width="2"
      stroke-linecap="round"
    />
  </symbol>

  <symbol id="hands"  fill="none" viewBox="0 0 150 110" >
    <!-- <mask
      id="path-2-outside-1_1_392"
      maskUnits="userSpaceOnUse"
      x="21"
      y="30"
      width="68"
      height="50"
      fill="black"
    >
      <rect fill="white" x="0" y="0" width="68" height="50"  />
      <path d="M72.6174 31C72.1738 31.0065 71.7504 31.1855 71.4362 31.4984L65.8425 37.0805C65.5212 37.4 65.3412 37.8338 65.3412 38.2866C65.3412 38.7393 65.5218 39.1732 65.8431 39.4932L66.1133 39.7622C65.5135 40.3934 64.7343 40.8266 63.8809 41.0038C63.0274 41.181 62.1402 41.0933 61.3378 40.7531C60.2676 40.2986 59.0864 40.1741 57.9451 40.3952C56.803 40.6162 55.7543 41.1727 54.9318 41.9929L54.2756 42.6478C53.5219 41.8003 52.5231 41.207 51.4166 40.9498C49.037 40.5225 46.599 40.5278 44.2212 40.967C44.8276 40.2937 44.8008 39.2642 44.1601 38.6237L38.5639 33.0392C37.897 32.3742 36.8155 32.3736 36.1486 33.0386L22.5002 46.6586C21.8333 47.3241 21.8333 48.4034 22.5002 49.0689L28.0963 54.6535C28.7633 55.319 29.8447 55.319 30.5117 54.6535L30.7528 54.4105C32.1971 55.9935 33.3326 57.8312 34.1022 59.8296C34.9995 61.4624 36.2521 62.8729 37.7681 63.9574C37.2051 64.6271 36.9456 65.5 37.0525 66.3677C37.1594 67.2354 37.622 68.0201 38.3305 68.5344C39.039 69.0482 39.9299 69.2455 40.7898 69.079C40.5606 69.7967 40.5956 70.5725 40.8902 71.2659C41.1841 71.9598 41.7174 72.5258 42.3933 72.8607C43.0697 73.1961 43.8435 73.2785 44.5752 73.0936C44.3478 73.9921 44.5271 74.9444 45.067 75.6983C45.6062 76.4521 46.4501 76.931 47.3754 77.008C48.3007 77.0851 49.2129 76.752 49.8697 76.0977L50.1684 75.8026C50.1565 76.6436 50.4813 77.4537 51.0717 78.0547C51.6614 78.655 52.4673 78.9958 53.31 78.9999C54.1527 79.0047 54.9622 78.6734 55.559 78.079L58.0265 75.6195C58.1209 75.5247 58.2088 75.4245 58.2902 75.319C58.9292 75.7647 59.7101 75.9591 60.484 75.8649C61.2578 75.7706 61.9693 75.3937 62.4819 74.8076C62.9944 74.2209 63.2711 73.4664 63.2598 72.6889L63.6868 73.112C64.4066 73.8315 65.4299 74.1604 66.4353 73.9956C67.4407 73.8303 68.3042 73.1914 68.755 72.2794C69.2057 71.3679 69.1885 70.2953 68.7081 69.3986C69.6458 69.4727 70.5674 69.126 71.2232 68.4528C71.8789 67.7795 72.1995 66.8497 72.0985 65.9168L75.6802 62.3425C77.2439 60.7809 78.1977 58.7126 78.3682 56.5109C78.4697 55.2029 78.6811 53.9056 79.0007 52.6327L79.4912 53.1163C80.1581 53.7818 81.2396 53.7818 81.9065 53.1163L87.5003 47.5342C88.1666 46.8686 88.1666 45.79 87.5003 45.1245L73.8519 31.5044C73.5253 31.1785 73.0798 30.9989 72.6178 31.006L72.6174 31ZM72.6323 31.889C72.8526 31.8872 73.064 31.9737 73.219 32.1296L86.8645 45.7467C87.0177 45.8996 87.1038 46.1071 87.1038 46.3234C87.1038 46.5397 87.0177 46.7471 86.8645 46.8994L81.2738 52.4809C81.1206 52.6338 80.9127 52.7204 80.696 52.7204C80.4792 52.7204 80.2719 52.6344 80.1187 52.4815L66.4673 38.8615C66.1496 38.5438 66.1496 38.0294 66.4673 37.7118L72.0639 32.1297C72.2142 31.9785 72.4185 31.8919 72.6323 31.889ZM37.3441 33.4269C37.5644 33.4234 37.777 33.5093 37.9332 33.6652L43.5269 39.2501C43.8446 39.5684 43.8446 40.0816 43.5269 40.3999L29.8785 54.0199C29.7253 54.1728 29.5175 54.2587 29.3007 54.2587C29.0845 54.2587 28.8767 54.1728 28.7235 54.0199L23.1328 48.4378C22.9796 48.2849 22.8929 48.0775 22.8929 47.8612C22.8929 47.6448 22.9796 47.4374 23.1328 47.2851L36.7812 33.6651C36.9308 33.5157 37.1327 33.4299 37.3441 33.4269ZM66.7395 40.3904L78.2749 51.896C77.8663 53.3811 77.5997 54.9024 77.4797 56.4381C77.3247 58.4275 76.463 60.2962 75.0502 61.7072L71.8226 64.9252C71.6664 64.5892 71.452 64.2834 71.1895 64.0215L57.7649 50.6247C59.6114 50.7379 61.4452 50.2502 62.9898 49.2344C63.1727 49.0916 63.2161 48.8332 63.0884 48.6394C62.9607 48.4456 62.706 48.3816 62.5023 48.493C60.6744 49.6949 58.4182 50.0575 56.3045 49.4892C55.7148 49.3304 55.0853 49.4987 54.653 49.9295L48.4992 56.0706C47.9231 56.6253 47.0964 56.8357 46.3244 56.6241C45.5523 56.4125 44.9495 55.8104 44.7381 55.0394C44.5266 54.269 44.7381 53.444 45.2951 52.8697L55.562 42.6241C56.2586 41.929 57.1471 41.4572 58.1145 41.27C59.0813 41.0827 60.0825 41.1882 60.9894 41.5728C61.9551 41.9811 63.0222 42.0872 64.0491 41.8762C65.0759 41.6647 66.0151 41.146 66.7395 40.3904ZM48.748 41.5431C49.5824 41.5816 50.4138 41.6747 51.2357 41.8216C52.171 42.0439 53.0127 42.5535 53.6421 43.2784L44.6615 52.2403C43.8788 53.0391 43.5789 54.193 43.8729 55.2717C44.1668 56.3497 45.0107 57.1924 46.0916 57.4858C47.1719 57.7792 48.3276 57.4799 49.1288 56.6988L55.2826 50.5578C55.4358 50.4049 55.6436 50.319 55.8604 50.319C56.0766 50.319 56.2844 50.4049 56.4377 50.5578L70.5595 64.6497C71.1177 65.2239 71.3309 66.0495 71.1195 66.8216C70.9087 67.5933 70.3047 68.1966 69.5315 68.4075C68.7583 68.6191 67.9305 68.4075 67.355 67.8504L63.7211 64.2241C63.5454 64.0611 63.2716 64.0653 63.1011 64.2342C62.9313 64.4037 62.9254 64.6763 63.0881 64.8523L67.5232 69.2782C68.0666 69.8554 68.2685 70.675 68.0547 71.4377C67.8409 72.2004 67.2435 72.7966 66.4786 73.0087C65.7143 73.2215 64.8941 73.0194 64.3156 72.4765L57.8714 66.0457C57.695 65.8851 57.4242 65.8911 57.2556 66.0594C57.0869 66.2277 57.081 66.4991 57.2419 66.6745L61.7031 71.1324C62.2406 71.6794 62.4639 72.4599 62.297 73.2073C62.1307 73.9546 61.5968 74.5668 60.8782 74.8352C60.1597 75.1031 59.3538 74.9905 58.7367 74.5359C59.0289 73.7939 59.0277 72.969 58.7349 72.2276C58.4416 71.4862 57.878 70.8828 57.1576 70.5397C56.4366 70.196 55.6124 70.1379 54.8504 70.3767C55.0054 69.6021 54.8634 68.798 54.4525 68.123C54.0415 67.448 53.3924 66.9513 52.6322 66.7315C51.872 66.5116 51.0573 66.5845 50.3482 66.9353C50.4296 66.0689 50.1481 65.2077 49.5714 64.5558C48.9942 63.9033 48.1728 63.5181 47.3016 63.4914C46.4298 63.4642 45.5859 63.7972 44.9694 64.4124L44.1914 65.1888C44.2039 64.3478 43.8785 63.537 43.2887 62.9361C42.699 62.3357 41.8931 61.9955 41.0504 61.9908C40.2076 61.986 39.3976 62.3179 38.8014 62.9118L38.4005 63.3088C36.9615 62.3031 35.7702 60.9839 34.9174 59.4507C34.1044 57.3575 32.9083 55.4332 31.3911 53.7762L43.0565 42.135C44.9148 41.6537 46.8342 41.4546 48.7518 41.5435L48.748 41.5431ZM40.9284 62.8805C41.5407 62.8527 42.1393 63.0743 42.5858 63.4939C43.0324 63.9135 43.2896 64.4955 43.2991 65.1077C43.308 65.7193 43.0687 66.309 42.6351 66.7422L41.7936 67.579C41.2152 68.1183 40.3968 68.3174 39.6343 68.104C38.8723 67.8907 38.2767 67.2969 38.0629 66.5359C37.8497 65.7755 38.0486 64.9588 38.589 64.3811L39.4252 63.5413C39.8267 63.1413 40.3618 62.9054 40.9284 62.8805ZM47.233 64.4185C47.8192 64.4374 48.375 64.6822 48.7842 65.1012C49.1934 65.5208 49.4244 66.0814 49.428 66.6669C49.4315 67.2519 49.2076 67.8154 48.8038 68.2397L45.4051 71.6344C44.8267 72.1731 44.0077 72.3722 43.2458 72.1589C42.4839 71.9455 41.8882 71.3517 41.6744 70.5914C41.4612 69.8304 41.6602 69.0143 42.2 68.4365L45.5987 65.0419C46.0375 64.6247 46.6267 64.3995 47.233 64.4185ZM51.7987 67.5293C52.3854 67.5494 52.9419 67.7971 53.3499 68.2179C53.7584 68.6393 53.9871 69.2017 53.9877 69.7879C53.9889 70.374 53.762 70.937 53.3552 71.3595L51.0937 73.6157L49.242 75.4636C48.6689 76.0361 47.8333 76.2601 47.05 76.0509C46.2672 75.8417 45.6549 75.2319 45.4453 74.4507C45.235 73.6691 45.4583 72.8353 46.0314 72.2627L50.1506 68.158C50.593 67.7349 51.1863 67.5079 51.7987 67.5293ZM55.8245 71.1615C56.4112 71.1805 56.9683 71.4258 57.3775 71.846C57.7867 72.2656 58.0171 72.8274 58.0195 73.4129C58.0224 73.9985 57.798 74.5621 57.3923 74.9858L54.9308 77.4453C54.3571 78.0112 53.5245 78.2299 52.7459 78.0195C51.9668 77.8097 51.3581 77.2023 51.1478 76.4253C50.937 75.6477 51.1567 74.8174 51.7238 74.2444L54.1884 71.7849C54.6285 71.3671 55.2169 71.1419 55.8245 71.1615Z" />
    </mask>
    <path 
      d="M72.6174 31C72.1738 31.0065 71.7504 31.1855 71.4362 31.4984L65.8425 37.0805C65.5212 37.4 65.3412 37.8338 65.3412 38.2866C65.3412 38.7393 65.5218 39.1732 65.8431 39.4932L66.1133 39.7622C65.5135 40.3934 64.7343 40.8266 63.8809 41.0038C63.0274 41.181 62.1402 41.0933 61.3378 40.7531C60.2676 40.2986 59.0864 40.1741 57.9451 40.3952C56.803 40.6162 55.7543 41.1727 54.9318 41.9929L54.2756 42.6478C53.5219 41.8003 52.5231 41.207 51.4166 40.9498C49.037 40.5225 46.599 40.5278 44.2212 40.967C44.8276 40.2937 44.8008 39.2642 44.1601 38.6237L38.5639 33.0392C37.897 32.3742 36.8155 32.3736 36.1486 33.0386L22.5002 46.6586C21.8333 47.3241 21.8333 48.4034 22.5002 49.0689L28.0963 54.6535C28.7633 55.319 29.8447 55.319 30.5117 54.6535L30.7528 54.4105C32.1971 55.9935 33.3326 57.8312 34.1022 59.8296C34.9995 61.4624 36.2521 62.8729 37.7681 63.9574C37.2051 64.6271 36.9456 65.5 37.0525 66.3677C37.1594 67.2354 37.622 68.0201 38.3305 68.5344C39.039 69.0482 39.9299 69.2455 40.7898 69.079C40.5606 69.7967 40.5956 70.5725 40.8902 71.2659C41.1841 71.9598 41.7174 72.5258 42.3933 72.8607C43.0697 73.1961 43.8435 73.2785 44.5752 73.0936C44.3478 73.9921 44.5271 74.9444 45.067 75.6983C45.6062 76.4521 46.4501 76.931 47.3754 77.008C48.3007 77.0851 49.2129 76.752 49.8697 76.0977L50.1684 75.8026C50.1565 76.6436 50.4813 77.4537 51.0717 78.0547C51.6614 78.655 52.4673 78.9958 53.31 78.9999C54.1527 79.0047 54.9622 78.6734 55.559 78.079L58.0265 75.6195C58.1209 75.5247 58.2088 75.4245 58.2902 75.319C58.9292 75.7647 59.7101 75.9591 60.484 75.8649C61.2578 75.7706 61.9693 75.3937 62.4819 74.8076C62.9944 74.2209 63.2711 73.4664 63.2598 72.6889L63.6868 73.112C64.4066 73.8315 65.4299 74.1604 66.4353 73.9956C67.4407 73.8303 68.3042 73.1914 68.755 72.2794C69.2057 71.3679 69.1885 70.2953 68.7081 69.3986C69.6458 69.4727 70.5674 69.126 71.2232 68.4528C71.8789 67.7795 72.1995 66.8497 72.0985 65.9168L75.6802 62.3425C77.2439 60.7809 78.1977 58.7126 78.3682 56.5109C78.4697 55.2029 78.6811 53.9056 79.0007 52.6327L79.4912 53.1163C80.1581 53.7818 81.2396 53.7818 81.9065 53.1163L87.5003 47.5342C88.1666 46.8686 88.1666 45.79 87.5003 45.1245L73.8519 31.5044C73.5253 31.1785 73.0798 30.9989 72.6178 31.006L72.6174 31ZM72.6323 31.889C72.8526 31.8872 73.064 31.9737 73.219 32.1296L86.8645 45.7467C87.0177 45.8996 87.1038 46.1071 87.1038 46.3234C87.1038 46.5397 87.0177 46.7471 86.8645 46.8994L81.2738 52.4809C81.1206 52.6338 80.9127 52.7204 80.696 52.7204C80.4792 52.7204 80.2719 52.6344 80.1187 52.4815L66.4673 38.8615C66.1496 38.5438 66.1496 38.0294 66.4673 37.7118L72.0639 32.1297C72.2142 31.9785 72.4185 31.8919 72.6323 31.889ZM37.3441 33.4269C37.5644 33.4234 37.777 33.5093 37.9332 33.6652L43.5269 39.2501C43.8446 39.5684 43.8446 40.0816 43.5269 40.3999L29.8785 54.0199C29.7253 54.1728 29.5175 54.2587 29.3007 54.2587C29.0845 54.2587 28.8767 54.1728 28.7235 54.0199L23.1328 48.4378C22.9796 48.2849 22.8929 48.0775 22.8929 47.8612C22.8929 47.6448 22.9796 47.4374 23.1328 47.2851L36.7812 33.6651C36.9308 33.5157 37.1327 33.4299 37.3441 33.4269ZM66.7395 40.3904L78.2749 51.896C77.8663 53.3811 77.5997 54.9024 77.4797 56.4381C77.3247 58.4275 76.463 60.2962 75.0502 61.7072L71.8226 64.9252C71.6664 64.5892 71.452 64.2834 71.1895 64.0215L57.7649 50.6247C59.6114 50.7379 61.4452 50.2502 62.9898 49.2344C63.1727 49.0916 63.2161 48.8332 63.0884 48.6394C62.9607 48.4456 62.706 48.3816 62.5023 48.493C60.6744 49.6949 58.4182 50.0575 56.3045 49.4892C55.7148 49.3304 55.0853 49.4987 54.653 49.9295L48.4992 56.0706C47.9231 56.6253 47.0964 56.8357 46.3244 56.6241C45.5523 56.4125 44.9495 55.8104 44.7381 55.0394C44.5266 54.269 44.7381 53.444 45.2951 52.8697L55.562 42.6241C56.2586 41.929 57.1471 41.4572 58.1145 41.27C59.0813 41.0827 60.0825 41.1882 60.9894 41.5728C61.9551 41.9811 63.0222 42.0872 64.0491 41.8762C65.0759 41.6647 66.0151 41.146 66.7395 40.3904ZM48.748 41.5431C49.5824 41.5816 50.4138 41.6747 51.2357 41.8216C52.171 42.0439 53.0127 42.5535 53.6421 43.2784L44.6615 52.2403C43.8788 53.0391 43.5789 54.193 43.8729 55.2717C44.1668 56.3497 45.0107 57.1924 46.0916 57.4858C47.1719 57.7792 48.3276 57.4799 49.1288 56.6988L55.2826 50.5578C55.4358 50.4049 55.6436 50.319 55.8604 50.319C56.0766 50.319 56.2844 50.4049 56.4377 50.5578L70.5595 64.6497C71.1177 65.2239 71.3309 66.0495 71.1195 66.8216C70.9087 67.5933 70.3047 68.1966 69.5315 68.4075C68.7583 68.6191 67.9305 68.4075 67.355 67.8504L63.7211 64.2241C63.5454 64.0611 63.2716 64.0653 63.1011 64.2342C62.9313 64.4037 62.9254 64.6763 63.0881 64.8523L67.5232 69.2782C68.0666 69.8554 68.2685 70.675 68.0547 71.4377C67.8409 72.2004 67.2435 72.7966 66.4786 73.0087C65.7143 73.2215 64.8941 73.0194 64.3156 72.4765L57.8714 66.0457C57.695 65.8851 57.4242 65.8911 57.2556 66.0594C57.0869 66.2277 57.081 66.4991 57.2419 66.6745L61.7031 71.1324C62.2406 71.6794 62.4639 72.4599 62.297 73.2073C62.1307 73.9546 61.5968 74.5668 60.8782 74.8352C60.1597 75.1031 59.3538 74.9905 58.7367 74.5359C59.0289 73.7939 59.0277 72.969 58.7349 72.2276C58.4416 71.4862 57.878 70.8828 57.1576 70.5397C56.4366 70.196 55.6124 70.1379 54.8504 70.3767C55.0054 69.6021 54.8634 68.798 54.4525 68.123C54.0415 67.448 53.3924 66.9513 52.6322 66.7315C51.872 66.5116 51.0573 66.5845 50.3482 66.9353C50.4296 66.0689 50.1481 65.2077 49.5714 64.5558C48.9942 63.9033 48.1728 63.5181 47.3016 63.4914C46.4298 63.4642 45.5859 63.7972 44.9694 64.4124L44.1914 65.1888C44.2039 64.3478 43.8785 63.537 43.2887 62.9361C42.699 62.3357 41.8931 61.9955 41.0504 61.9908C40.2076 61.986 39.3976 62.3179 38.8014 62.9118L38.4005 63.3088C36.9615 62.3031 35.7702 60.9839 34.9174 59.4507C34.1044 57.3575 32.9083 55.4332 31.3911 53.7762L43.0565 42.135C44.9148 41.6537 46.8342 41.4546 48.7518 41.5435L48.748 41.5431ZM40.9284 62.8805C41.5407 62.8527 42.1393 63.0743 42.5858 63.4939C43.0324 63.9135 43.2896 64.4955 43.2991 65.1077C43.308 65.7193 43.0687 66.309 42.6351 66.7422L41.7936 67.579C41.2152 68.1183 40.3968 68.3174 39.6343 68.104C38.8723 67.8907 38.2767 67.2969 38.0629 66.5359C37.8497 65.7755 38.0486 64.9588 38.589 64.3811L39.4252 63.5413C39.8267 63.1413 40.3618 62.9054 40.9284 62.8805ZM47.233 64.4185C47.8192 64.4374 48.375 64.6822 48.7842 65.1012C49.1934 65.5208 49.4244 66.0814 49.428 66.6669C49.4315 67.2519 49.2076 67.8154 48.8038 68.2397L45.4051 71.6344C44.8267 72.1731 44.0077 72.3722 43.2458 72.1589C42.4839 71.9455 41.8882 71.3517 41.6744 70.5914C41.4612 69.8304 41.6602 69.0143 42.2 68.4365L45.5987 65.0419C46.0375 64.6247 46.6267 64.3995 47.233 64.4185ZM51.7987 67.5293C52.3854 67.5494 52.9419 67.7971 53.3499 68.2179C53.7584 68.6393 53.9871 69.2017 53.9877 69.7879C53.9889 70.374 53.762 70.937 53.3552 71.3595L51.0937 73.6157L49.242 75.4636C48.6689 76.0361 47.8333 76.2601 47.05 76.0509C46.2672 75.8417 45.6549 75.2319 45.4453 74.4507C45.235 73.6691 45.4583 72.8353 46.0314 72.2627L50.1506 68.158C50.593 67.7349 51.1863 67.5079 51.7987 67.5293ZM55.8245 71.1615C56.4112 71.1805 56.9683 71.4258 57.3775 71.846C57.7867 72.2656 58.0171 72.8274 58.0195 73.4129C58.0224 73.9985 57.798 74.5621 57.3923 74.9858L54.9308 77.4453C54.3571 78.0112 53.5245 78.2299 52.7459 78.0195C51.9668 77.8097 51.3581 77.2023 51.1478 76.4253C50.937 75.6477 51.1567 74.8174 51.7238 74.2444L54.1884 71.7849C54.6285 71.3671 55.2169 71.1419 55.8245 71.1615Z"
      fill="currentColor"
    />
    <path 
    
      
      d="M72.6174 31C72.1738 31.0065 71.7504 31.1855 71.4362 31.4984L65.8425 37.0805C65.5212 37.4 65.3412 37.8338 65.3412 38.2866C65.3412 38.7393 65.5218 39.1732 65.8431 39.4932L66.1133 39.7622C65.5135 40.3934 64.7343 40.8266 63.8809 41.0038C63.0274 41.181 62.1402 41.0933 61.3378 40.7531C60.2676 40.2986 59.0864 40.1741 57.9451 40.3952C56.803 40.6162 55.7543 41.1727 54.9318 41.9929L54.2756 42.6478C53.5219 41.8003 52.5231 41.207 51.4166 40.9498C49.037 40.5225 46.599 40.5278 44.2212 40.967C44.8276 40.2937 44.8008 39.2642 44.1601 38.6237L38.5639 33.0392C37.897 32.3742 36.8155 32.3736 36.1486 33.0386L22.5002 46.6586C21.8333 47.3241 21.8333 48.4034 22.5002 49.0689L28.0963 54.6535C28.7633 55.319 29.8447 55.319 30.5117 54.6535L30.7528 54.4105C32.1971 55.9935 33.3326 57.8312 34.1022 59.8296C34.9995 61.4624 36.2521 62.8729 37.7681 63.9574C37.2051 64.6271 36.9456 65.5 37.0525 66.3677C37.1594 67.2354 37.622 68.0201 38.3305 68.5344C39.039 69.0482 39.9299 69.2455 40.7898 69.079C40.5606 69.7967 40.5956 70.5725 40.8902 71.2659C41.1841 71.9598 41.7174 72.5258 42.3933 72.8607C43.0697 73.1961 43.8435 73.2785 44.5752 73.0936C44.3478 73.9921 44.5271 74.9444 45.067 75.6983C45.6062 76.4521 46.4501 76.931 47.3754 77.008C48.3007 77.0851 49.2129 76.752 49.8697 76.0977L50.1684 75.8026C50.1565 76.6436 50.4813 77.4537 51.0717 78.0547C51.6614 78.655 52.4673 78.9958 53.31 78.9999C54.1527 79.0047 54.9622 78.6734 55.559 78.079L58.0265 75.6195C58.1209 75.5247 58.2088 75.4245 58.2902 75.319C58.9292 75.7647 59.7101 75.9591 60.484 75.8649C61.2578 75.7706 61.9693 75.3937 62.4819 74.8076C62.9944 74.2209 63.2711 73.4664 63.2598 72.6889L63.6868 73.112C64.4066 73.8315 65.4299 74.1604 66.4353 73.9956C67.4407 73.8303 68.3042 73.1914 68.755 72.2794C69.2057 71.3679 69.1885 70.2953 68.7081 69.3986C69.6458 69.4727 70.5674 69.126 71.2232 68.4528C71.8789 67.7795 72.1995 66.8497 72.0985 65.9168L75.6802 62.3425C77.2439 60.7809 78.1977 58.7126 78.3682 56.5109C78.4697 55.2029 78.6811 53.9056 79.0007 52.6327L79.4912 53.1163C80.1581 53.7818 81.2396 53.7818 81.9065 53.1163L87.5003 47.5342C88.1666 46.8686 88.1666 45.79 87.5003 45.1245L73.8519 31.5044C73.5253 31.1785 73.0798 30.9989 72.6178 31.006L72.6174 31ZM72.6323 31.889C72.8526 31.8872 73.064 31.9737 73.219 32.1296L86.8645 45.7467C87.0177 45.8996 87.1038 46.1071 87.1038 46.3234C87.1038 46.5397 87.0177 46.7471 86.8645 46.8994L81.2738 52.4809C81.1206 52.6338 80.9127 52.7204 80.696 52.7204C80.4792 52.7204 80.2719 52.6344 80.1187 52.4815L66.4673 38.8615C66.1496 38.5438 66.1496 38.0294 66.4673 37.7118L72.0639 32.1297C72.2142 31.9785 72.4185 31.8919 72.6323 31.889ZM37.3441 33.4269C37.5644 33.4234 37.777 33.5093 37.9332 33.6652L43.5269 39.2501C43.8446 39.5684 43.8446 40.0816 43.5269 40.3999L29.8785 54.0199C29.7253 54.1728 29.5175 54.2587 29.3007 54.2587C29.0845 54.2587 28.8767 54.1728 28.7235 54.0199L23.1328 48.4378C22.9796 48.2849 22.8929 48.0775 22.8929 47.8612C22.8929 47.6448 22.9796 47.4374 23.1328 47.2851L36.7812 33.6651C36.9308 33.5157 37.1327 33.4299 37.3441 33.4269ZM66.7395 40.3904L78.2749 51.896C77.8663 53.3811 77.5997 54.9024 77.4797 56.4381C77.3247 58.4275 76.463 60.2962 75.0502 61.7072L71.8226 64.9252C71.6664 64.5892 71.452 64.2834 71.1895 64.0215L57.7649 50.6247C59.6114 50.7379 61.4452 50.2502 62.9898 49.2344C63.1727 49.0916 63.2161 48.8332 63.0884 48.6394C62.9607 48.4456 62.706 48.3816 62.5023 48.493C60.6744 49.6949 58.4182 50.0575 56.3045 49.4892C55.7148 49.3304 55.0853 49.4987 54.653 49.9295L48.4992 56.0706C47.9231 56.6253 47.0964 56.8357 46.3244 56.6241C45.5523 56.4125 44.9495 55.8104 44.7381 55.0394C44.5266 54.269 44.7381 53.444 45.2951 52.8697L55.562 42.6241C56.2586 41.929 57.1471 41.4572 58.1145 41.27C59.0813 41.0827 60.0825 41.1882 60.9894 41.5728C61.9551 41.9811 63.0222 42.0872 64.0491 41.8762C65.0759 41.6647 66.0151 41.146 66.7395 40.3904ZM48.748 41.5431C49.5824 41.5816 50.4138 41.6747 51.2357 41.8216C52.171 42.0439 53.0127 42.5535 53.6421 43.2784L44.6615 52.2403C43.8788 53.0391 43.5789 54.193 43.8729 55.2717C44.1668 56.3497 45.0107 57.1924 46.0916 57.4858C47.1719 57.7792 48.3276 57.4799 49.1288 56.6988L55.2826 50.5578C55.4358 50.4049 55.6436 50.319 55.8604 50.319C56.0766 50.319 56.2844 50.4049 56.4377 50.5578L70.5595 64.6497C71.1177 65.2239 71.3309 66.0495 71.1195 66.8216C70.9087 67.5933 70.3047 68.1966 69.5315 68.4075C68.7583 68.6191 67.9305 68.4075 67.355 67.8504L63.7211 64.2241C63.5454 64.0611 63.2716 64.0653 63.1011 64.2342C62.9313 64.4037 62.9254 64.6763 63.0881 64.8523L67.5232 69.2782C68.0666 69.8554 68.2685 70.675 68.0547 71.4377C67.8409 72.2004 67.2435 72.7966 66.4786 73.0087C65.7143 73.2215 64.8941 73.0194 64.3156 72.4765L57.8714 66.0457C57.695 65.8851 57.4242 65.8911 57.2556 66.0594C57.0869 66.2277 57.081 66.4991 57.2419 66.6745L61.7031 71.1324C62.2406 71.6794 62.4639 72.4599 62.297 73.2073C62.1307 73.9546 61.5968 74.5668 60.8782 74.8352C60.1597 75.1031 59.3538 74.9905 58.7367 74.5359C59.0289 73.7939 59.0277 72.969 58.7349 72.2276C58.4416 71.4862 57.878 70.8828 57.1576 70.5397C56.4366 70.196 55.6124 70.1379 54.8504 70.3767C55.0054 69.6021 54.8634 68.798 54.4525 68.123C54.0415 67.448 53.3924 66.9513 52.6322 66.7315C51.872 66.5116 51.0573 66.5845 50.3482 66.9353C50.4296 66.0689 50.1481 65.2077 49.5714 64.5558C48.9942 63.9033 48.1728 63.5181 47.3016 63.4914C46.4298 63.4642 45.5859 63.7972 44.9694 64.4124L44.1914 65.1888C44.2039 64.3478 43.8785 63.537 43.2887 62.9361C42.699 62.3357 41.8931 61.9955 41.0504 61.9908C40.2076 61.986 39.3976 62.3179 38.8014 62.9118L38.4005 63.3088C36.9615 62.3031 35.7702 60.9839 34.9174 59.4507C34.1044 57.3575 32.9083 55.4332 31.3911 53.7762L43.0565 42.135C44.9148 41.6537 46.8342 41.4546 48.7518 41.5435L48.748 41.5431ZM40.9284 62.8805C41.5407 62.8527 42.1393 63.0743 42.5858 63.4939C43.0324 63.9135 43.2896 64.4955 43.2991 65.1077C43.308 65.7193 43.0687 66.309 42.6351 66.7422L41.7936 67.579C41.2152 68.1183 40.3968 68.3174 39.6343 68.104C38.8723 67.8907 38.2767 67.2969 38.0629 66.5359C37.8497 65.7755 38.0486 64.9588 38.589 64.3811L39.4252 63.5413C39.8267 63.1413 40.3618 62.9054 40.9284 62.8805ZM47.233 64.4185C47.8192 64.4374 48.375 64.6822 48.7842 65.1012C49.1934 65.5208 49.4244 66.0814 49.428 66.6669C49.4315 67.2519 49.2076 67.8154 48.8038 68.2397L45.4051 71.6344C44.8267 72.1731 44.0077 72.3722 43.2458 72.1589C42.4839 71.9455 41.8882 71.3517 41.6744 70.5914C41.4612 69.8304 41.6602 69.0143 42.2 68.4365L45.5987 65.0419C46.0375 64.6247 46.6267 64.3995 47.233 64.4185ZM51.7987 67.5293C52.3854 67.5494 52.9419 67.7971 53.3499 68.2179C53.7584 68.6393 53.9871 69.2017 53.9877 69.7879C53.9889 70.374 53.762 70.937 53.3552 71.3595L51.0937 73.6157L49.242 75.4636C48.6689 76.0361 47.8333 76.2601 47.05 76.0509C46.2672 75.8417 45.6549 75.2319 45.4453 74.4507C45.235 73.6691 45.4583 72.8353 46.0314 72.2627L50.1506 68.158C50.593 67.7349 51.1863 67.5079 51.7987 67.5293ZM55.8245 71.1615C56.4112 71.1805 56.9683 71.4258 57.3775 71.846C57.7867 72.2656 58.0171 72.8274 58.0195 73.4129C58.0224 73.9985 57.798 74.5621 57.3923 74.9858L54.9308 77.4453C54.3571 78.0112 53.5245 78.2299 52.7459 78.0195C51.9668 77.8097 51.3581 77.2023 51.1478 76.4253C50.937 75.6477 51.1567 74.8174 51.7238 74.2444L54.1884 71.7849C54.6285 71.3671 55.2169 71.1419 55.8245 71.1615Z"
      stroke="currentColor"
      mask="url(#path-2-outside-1_1_392)"
    /> -->
   
   <rect id="backgroundrect" width="100%" height="100%" x="0" y="0" fill="none" stroke="none"/>
   <path d="M115.77513568017375,1.338982343673706 C114.76763688571344,1.3537450627088532 113.8060160796393,1.7602876330614103 113.09240895335566,2.470942215538031 L100.38806718921552,15.14893820416927 C99.6583346313704,15.87458262443542 99.24952087347398,16.859823780965797 99.24952087347398,17.888217500829697 C99.24952087347398,18.916384101939208 99.65969734389674,19.901852377223975 100.38942990174186,20.62863239126206 L101.00310477609526,21.23958184056282 C99.6408464872826,22.673155418252946 97.87113715309988,23.657033862256995 95.93290570316205,24.05948829503059 C93.99444713446985,24.46194272780417 91.97944954554927,24.262759580206875 90.15704866034875,23.49010157778264 C87.72642375090012,22.457846839094163 85.04369702408204,22.17508398988248 82.45159068026433,22.67724355583192 C79.85766738641152,23.17917600302696 77.47587300915609,24.443091871190063 75.60782125432384,26.305919894671433 L74.11746798803696,27.793320617151267 C72.4056739362229,25.868489173722267 70.13721181740652,24.520993603944774 67.62414280011545,23.936844167661675 C62.219624920724726,22.96636573016643 56.68246968877206,22.978403024148946 51.282039946960325,23.975908593416214 C52.65928807356248,22.44671802012921 52.598420247386805,20.10853044371605 51.14327038802992,18.653834821867946 L38.43325065503011,5.970387983131417 C36.91859568202386,4.460048266458514 34.462306353329524,4.458685553932198 32.94765138032328,5.969025270605087 L1.9495753065813601,36.90259961810112 C0.43492033357511417,38.41407492854596 0.43492033357511417,40.86536764464378 1.9495753065813601,42.37684295508862 L14.659367920826774,55.060516912579544 C16.17425001258742,56.57199222302438 18.630312222527365,56.57199222302438 20.145194314288005,55.060516912579544 L20.692777631114822,54.50861833941936 C23.97305380072484,58.10390822136401 26.551987256788124,62.277669570732115 28.299893190549724,66.81641075839997 C30.337829773663387,70.52480578002931 33.18271929111371,73.72831581065654 36.62583960761914,76.19141870198249 C35.3471610204209,77.71243300011159 34.757787852786876,79.69495260715485 35.000577801226484,81.66566203897 C35.24336774966608,83.63637147078515 36.29401910745989,85.41857233645916 37.90315548229108,86.586644090271 C39.51229185712229,87.75358025031088 41.5356928399552,88.20168555271627 43.48868700892817,87.82353282666205 C42.968130823873395,89.45356412689685 43.04762238790881,91.21555142343044 43.716714238332614,92.79039286634924 C44.384216257475714,94.36636990303992 45.59544057462107,95.6518620528698 47.13053623552214,96.41248276131151 C48.66676749019514,97.17423906352519 50.42421241164098,97.36138491713999 52.08604033748995,96.94144234027863 C51.569572290014136,98.98210434844492 51.976796216629836,101.1449562464714 53.20301037156473,102.85720453579427 C54.42763469521891,104.56922570636272 56.34428986348996,105.65689742112158 58.445819697831965,105.83177886199951 C60.54734953217397,106.0068874216318 62.619126809691295,105.25035485076906 64.11084278850447,103.76431684081555 L64.78924650785814,103.09408939661978 C64.76221937608611,105.00415812101366 65.49990109033475,106.84404715030192 66.84081021623503,108.2090308641672 C68.18012951085458,109.57242474675178 70.01047955245863,110.34644546170236 71.92440929567705,110.3557573306322 C73.83833903889548,110.36665903084278 75.67686535565745,109.61421459755897 77.03231008183847,108.26422072148321 L82.63646534633529,102.6782349573374 C82.8508654504765,102.4629263781786 83.0505028355826,102.2353533862829 83.23537750165355,101.99574310040475 C84.68666634218584,103.00801138870716 86.46023669519315,103.44953024723532 88.2179087353934,103.23558438060286 C89.97535365683925,103.021411395216 91.59130359430205,102.16540080993175 92.75551432928928,100.8342577904701 C93.91949794552218,99.50175205848217 94.54793553891074,97.78814105663298 94.52227111966502,96.02229274127484 L95.49206820089708,96.98323219108579 C97.12686899497399,98.6173516288996 99.45097520861518,99.36434521207809 101.73442716522106,98.99005350484848 C104.01787912182701,98.61462620384691 105.97904956595787,97.163564482069 107.00290091073404,95.09224144206047 C108.0265251367558,93.02205399582388 107.98746071100126,90.58597823626994 106.8963822149266,88.54940436568262 C109.02607477481254,88.7176993626833 111.11920121524227,87.93027864122391 112.60864600651158,86.40131518669128 C114.09786367902646,84.87212461340428 114.82600640559087,82.76037443511487 114.5966164636601,80.64158357543945 L122.73132888953577,72.52367793738841 C126.28278485188375,68.97699146888257 128.449043531226,64.27949427189827 128.83628100745568,59.27902065656184 C129.0668065431584,56.30830734918118 129.5469355899323,53.3618957485199 130.27280712895282,50.470901123929025 L131.38682461922065,51.56924742014408 C132.90147959222685,53.0807227305889 135.3577689209212,53.0807227305889 136.87242389392745,51.56924742014408 L149.57699277682195,38.89125143151283 C151.0902850373019,37.37954900231362 151.0902850373019,34.929846117496496 149.57699277682195,33.41837080705166 L118.57891670308004,2.4845693408012437 C117.83714685125241,1.7443893202543288 116.8253328004588,1.336484037375448 115.7760441551913,1.3526094689369188 L115.77513568017375,1.338982343673706 zM115.80897637457738,3.3580680701732613 C116.30931899049173,3.3539799325942994 116.78944803726563,3.5504376551389782 117.14148210656532,3.904515793228157 L148.13297173643005,34.83150369684695 C148.48091766815077,35.17876827230454 148.6764669156779,35.65003968765737 148.6764669156779,36.14129755339623 C148.6764669156779,36.63255541913511 148.48091766815077,37.10359971573354 148.13297173643005,37.44950157866478 L135.4354435349215,50.1261348547697 C135.08749760320077,50.473399430227275 134.6153177128304,50.670084271526335 134.12315137207398,50.670084271526335 C133.6307579125632,50.670084271526335 133.15994073471916,50.474762142753605 132.8119948029984,50.12749756729602 L101.80710516662486,19.1939232198 C101.08554888393772,18.472366937112795 101.08554888393772,17.304068064546584 101.80710516662486,16.582738900613776 L114.51803337464224,3.904742911982538 C114.85939286248578,3.5613393553495456 115.32339647769817,3.3646545140504855 115.80897637457738,3.3580680701732613 zM35.662856089018675,6.850927393889435 C36.16319870493302,6.8429782374858945 36.646053176759594,7.038073247504251 37.00081267111193,7.392151385593408 L49.705154435252055,20.076506699347505 C50.426710717939244,20.799425694560995 50.426710717939244,21.96499914207459 49.705154435252055,22.687918137288094 L18.707078361510142,53.62149248478413 C18.359132429789412,53.9687570602417 17.887179658173427,54.16385207026005 17.394786198662615,54.16385207026005 C16.903755451678137,54.16385207026005 16.431802680062162,53.9687570602417 16.08385674834144,53.62149248478413 L3.3863285468329067,40.94349649615289 C3.03838261511218,40.5962319206953 2.8414706550587283,40.12518762409687 2.8414706550587283,39.63392975835799 C2.8414706550587283,39.14244477386475 3.03838261511218,38.671400477266296 3.3863285468329067,38.32549861433506 L34.38440462057481,7.391924266839027 C34.72417427713762,7.052608847784995 35.18272704224478,6.857740956521049 35.662856089018675,6.850927393889435 zM102.42532241606605,22.66634185562134 L128.62437920961273,48.79771726036071 C127.69637197918783,52.170657881760604 127.09087337999236,55.625815492248535 126.81833087472805,59.11367820336818 C126.46629680542839,63.631978703141215 124.50921449887642,67.87614686636925 121.3004807368983,71.08079249076843 L113.96999582030662,78.38947400693894 C113.6152363259543,77.62635499219897 113.12829371654877,76.9318258412838 112.53210698628317,76.33700182354451 L82.04232268485913,45.91035653584002 C86.2360704846133,46.167454965806016 90.40097420256029,45.05979680066109 93.90905048282039,42.75272449359893 C94.32445068459401,42.428398912334444 94.42302022399792,41.841524050998686 94.13298957464588,41.401367904996874 C93.8429589252938,40.96121175899505 93.26448745787037,40.81585575618743 92.80184655518423,41.06886604857445 C88.65034284374605,43.79860635755061 83.52608950726878,44.62213896095753 78.72548039579281,43.331423079776755 C77.38616110117326,42.97075849781035 75.95644854230771,43.35299936144352 74.97461416709314,44.33142695534228 L60.99818025963198,58.279016780996315 C59.68974911560903,59.538844511580464 57.81215837309253,60.01670237081052 56.058801589225624,59.53611908652783 C54.305217686604365,59.055535802245146 52.93614583516012,57.68805378208161 52.45601678838622,55.93696818575859 C51.975660622857916,54.187245301961894 52.45601678838622,52.31351557826997 53.72106825032125,51.009172571825985 L77.03912364447008,27.73949347236156 C78.62123288752925,26.16079101061821 80.63918302025687,25.089244727420805 82.83632985019574,24.664078419208536 C85.03211396760832,24.238684992241872 87.30602693652997,24.478295278120044 89.3657669200648,25.351794007492074 C91.5590527311791,26.279119881653784 93.98263695924172,26.5200928800583 96.31491944804083,26.040872308301914 C98.64697481808554,25.560516142773636 100.78007415928732,24.382451163768764 102.42532241606605,22.66634185562134 zM61.56325172054659,25.28433973743917 C63.4583306071509,25.371780457878117 65.3465959311236,25.583228018212324 67.21328497342955,25.916865468406684 C69.33752668321026,26.421750459408756 71.24918523888479,27.579147631764414 72.67867067899594,29.225531482315063 L52.282043822525836,49.57968713171482 C50.50438533193956,51.3939117417574 49.82325618753323,54.01463504862785 50.49098532543074,56.464565052199376 C51.15848734457384,58.91290522449016 53.075142512844906,60.82683496770858 55.53006912901293,61.493201393079744 C57.98363303265462,62.15956781845094 60.608444477104044,61.47980138657093 62.42811993725191,59.705776796054835 L76.40455384471308,45.758414089155195 C76.75249977643382,45.41114951369762 77.2244525480498,45.21605450367929 77.71684600756059,45.21605450367929 C78.20787675454507,45.21605450367929 78.67982952616106,45.41114951369762 79.02800257663617,45.758414089155195 L111.10125883364569,77.76376183860302 C112.36903572063338,79.06787772629261 112.85325290498625,80.94297016251085 112.37312385821235,82.69655406513215 C111.89435752396474,84.44922949273587 110.52256024746785,85.81943693795205 108.76647803854831,86.29843039095402 C107.01039582962883,86.77901367523671 105.13030678081404,86.29843039095402 103.82323834931742,85.03315181026457 L95.56996993365178,76.79714441993238 C95.170922282194,76.42694085028171 94.54907113268266,76.43647983796595 94.16183365645301,76.82008341412543 C93.77618601150405,77.20504970281124 93.7627860049952,77.82417542726992 94.13230821838269,78.22390443499089 L104.2052520941962,88.27595338540075 C105.43941540553459,89.58688283572198 105.89796817064178,91.448348146677 105.41238827376256,93.18058288638593 C104.92680837688337,94.91281762609484 103.57000093817601,96.26689963974951 101.83276958587061,96.74861851780415 C100.0969009460915,97.2319272271395 98.23407292261012,96.77292022452355 96.92019092848193,95.53989250695705 L82.2842041582812,80.93433964984416 C81.88356667554271,80.5695869302988 81.26852908866297,80.583214055562 80.88560686876664,80.96545491919517 C80.50245753011595,81.34769578282834 80.48905752360713,81.96409608223439 80.85449159941564,82.36246237742898 L90.9867134701241,92.48718932924271 C92.2074767749537,93.72952891573905 92.71463295349966,95.50219079372883 92.33557175242791,97.19967636401654 C91.9578732638825,98.89693481554986 90.74528623421085,100.28735582990646 89.11321086518655,100.8969425666809 C87.48136261491666,101.5053937096834 85.65101257331261,101.24965799224375 84.24946273999106,100.2171761348009 C84.9131037403096,98.53195497725008 84.91037831525693,96.65845237231252 84.24537460241208,94.97459392728805 C83.57923529579531,93.29073548226356 82.29919399607073,91.92030091829301 80.6630304894675,91.14105647199153 C79.02550427033793,90.36044931316374 77.15359149668109,90.22849331686498 75.42294658825288,90.77085290234089 C75.77498065755259,89.01159103085996 75.45247202632318,87.18532912683489 74.5192410645474,85.65227753472328 C73.58578298401724,84.11922594261168 72.11155514929186,82.99112708957196 70.38499837844263,82.49192006742953 C68.6584416075934,81.99248592653274 66.80810511560331,82.15805549848082 65.19760602824579,82.95478808887003 C65.38248069431673,80.98703120086194 64.7431414007176,79.03108448808194 63.43334754416833,77.55049732823372 C62.122418093847145,76.06854745585917 60.25686464531313,75.19368601396084 58.27820605709443,75.13304530653954 C56.29818475634943,75.0712690053463 54.381529588078365,75.82757445745469 52.98134246728311,77.22480903444293 L51.21435855815302,78.9881590435028 C51.24274840245137,77.07809031910898 50.5037039756764,75.23661145853995 49.16415756230245,73.87185486342906 C47.8248382676829,72.50823386209012 45.99448822607884,71.73557585966586 44.08055848286044,71.72490127820971 C42.166401620887626,71.71399957799912 40.326739710353706,72.46780672380925 38.97265769669902,73.81666500611306 L38.06213861036193,74.71832646102905 C34.79389973473441,72.43419314815998 32.08823401372325,69.43804254028797 30.151365276311736,65.95585779802798 C28.304889803146224,61.20180803120135 25.588322381924485,56.831361840534214 22.142476640366425,53.06800408034326 L48.63678781461607,26.628655644655232 C52.85733562738787,25.535533079791065 57.21665299909007,25.08333963980676 61.5718822332133,25.285248212456708 L61.56325172054659,25.28433973743917 zM43.80347360250842,73.74557683598994 C45.19412173561942,73.6824378222704 46.553654599379406,74.18573298199178 47.567739837716914,75.13872327539923 C48.58205219480884,76.09171356880665 49.16620163109194,77.41354471933843 49.187777912758705,78.80396573369501 C49.20799148189913,80.19302403552533 48.66449630265127,81.53234333014487 47.67970938362967,82.51622177414893 L45.768505065463884,84.41675151085852 C44.454850190090056,85.6416029532671 42.59611030418763,86.09379639325144 40.86432980198752,85.60912497138978 C39.133684893559334,85.12468066828251 37.78096559243093,83.77604950473307 37.29538569555172,82.04767578384875 C36.81116851119886,80.32066477549074 37.26290771367441,78.46578590841293 38.49025746238122,77.15372086431981 L40.389424486564494,75.24637756497859 C41.30130628542791,74.33790254743099 42.516618740152225,73.80212940583229 43.80347360250842,73.74557683598994 zM58.122402591585015,77.23866327846048 C59.453772729801045,77.28158872303962 60.716098766683444,77.83757543377874 61.64546870963464,78.7892030146599 C62.57483865258584,79.7421933080673 63.09948297521959,81.01542104516031 63.10765925037751,82.34520135209559 C63.115608406781064,83.673846065259 62.60708951570879,84.95366024622916 61.68998398549448,85.9173251210928 L53.970898880146834,93.62732547626496 C52.657244004773,94.85081420614719 50.79714140634428,95.30300764613153 49.06672361667049,94.81856334302427 C47.336305826996664,94.3338919211626 45.983359407113895,92.98526075761316 45.49777951023469,91.25847686800955 C45.01356232588182,89.53010314712523 45.465528647111775,87.67658699257376 46.691515683292266,86.36429482972622 L54.4106007886399,78.65452159330843 C55.40719788288962,77.7069821500063 56.74538158373724,77.195510715127 58.122402591585015,77.23866327846048 zM68.4919635606278,84.30387348992826 C69.82446929261575,84.34952435956004 71.08838516077886,84.91209751417637 72.01502967867742,85.86781323263645 C72.94280979034792,86.82489166362288 73.46223038163076,88.1022075382948 73.46359309415708,89.4335776765108 C73.46631851920974,90.76472069597244 72.95098606550584,92.04339928317069 72.02706697265994,93.00297602045535 L66.89077634220014,98.12722935693265 L62.68521836721787,102.3241568192482 C61.383600785826545,103.62441168811321 59.485796474169604,104.13315769793985 57.70677527105698,103.65802526376248 C55.928889661716326,103.18289282958509 54.538241528605326,101.79792266533374 54.06220061941039,100.02367095606326 C53.58456987893473,98.24851077177524 54.091726057480685,96.35479459769726 55.39334363887201,95.05431261007786 L64.74881936957726,85.73176909875869 C65.75359273898493,84.77082964894771 67.10108830876243,84.25527007648947 68.4919635606278,84.30387348992826 zM77.6353103747357,92.5532808867693 C78.96781610672366,92.59643345010281 80.23309468741309,93.15355575461388 81.16246463036427,94.10790876054764 C82.09183457331548,95.0608990539551 82.61511618342291,96.33685221610068 82.6205670335282,97.66663252303599 C82.62715347740541,98.99663994872571 82.11749899256122,100.27668124845027 81.19607820601354,101.23898341078757 L75.60555006677995,106.82496917493344 C74.30256977286231,108.11023420600893 72.41157902383696,108.60694292185306 70.64323240218053,108.129085062623 C68.87375018675219,107.65258991591932 67.49127832879911,106.27307060177324 67.01364758832345,104.50835788018705 C66.53488125407587,102.74228244607448 67.03386115746389,100.85651542840006 68.321851613592,99.5551249657631 L73.9194204342116,93.96913920161722 C74.91897007226835,93.02023704578875 76.25533682308088,92.50876561090948 77.6353103747357,92.5532808867693 z" fill="currentColor" />
    <path d="M115.77513568017375,1.338982343673706 C114.76763688571344,1.3537450627088532 113.8060160796393,1.7602876330614103 113.09240895335566,2.470942215538031 L100.38806718921552,15.14893820416927 C99.6583346313704,15.87458262443542 99.24952087347398,16.859823780965797 99.24952087347398,17.888217500829697 C99.24952087347398,18.916384101939208 99.65969734389674,19.901852377223975 100.38942990174186,20.62863239126206 L101.00310477609526,21.23958184056282 C99.6408464872826,22.673155418252946 97.87113715309988,23.657033862256995 95.93290570316205,24.05948829503059 C93.99444713446985,24.46194272780417 91.97944954554927,24.262759580206875 90.15704866034875,23.49010157778264 C87.72642375090012,22.457846839094163 85.04369702408204,22.17508398988248 82.45159068026433,22.67724355583192 C79.85766738641152,23.17917600302696 77.47587300915609,24.443091871190063 75.60782125432384,26.305919894671433 L74.11746798803696,27.793320617151267 C72.4056739362229,25.868489173722267 70.13721181740652,24.520993603944774 67.62414280011545,23.936844167661675 C62.219624920724726,22.96636573016643 56.68246968877206,22.978403024148946 51.282039946960325,23.975908593416214 C52.65928807356248,22.44671802012921 52.598420247386805,20.10853044371605 51.14327038802992,18.653834821867946 L38.43325065503011,5.970387983131417 C36.91859568202386,4.460048266458514 34.462306353329524,4.458685553932198 32.94765138032328,5.969025270605087 L1.9495753065813601,36.90259961810112 C0.43492033357511417,38.41407492854596 0.43492033357511417,40.86536764464378 1.9495753065813601,42.37684295508862 L14.659367920826774,55.060516912579544 C16.17425001258742,56.57199222302438 18.630312222527365,56.57199222302438 20.145194314288005,55.060516912579544 L20.692777631114822,54.50861833941936 C23.97305380072484,58.10390822136401 26.551987256788124,62.277669570732115 28.299893190549724,66.81641075839997 C30.337829773663387,70.52480578002931 33.18271929111371,73.72831581065654 36.62583960761914,76.19141870198249 C35.3471610204209,77.71243300011159 34.757787852786876,79.69495260715485 35.000577801226484,81.66566203897 C35.24336774966608,83.63637147078515 36.29401910745989,85.41857233645916 37.90315548229108,86.586644090271 C39.51229185712229,87.75358025031088 41.5356928399552,88.20168555271627 43.48868700892817,87.82353282666205 C42.968130823873395,89.45356412689685 43.04762238790881,91.21555142343044 43.716714238332614,92.79039286634924 C44.384216257475714,94.36636990303992 45.59544057462107,95.6518620528698 47.13053623552214,96.41248276131151 C48.66676749019514,97.17423906352519 50.42421241164098,97.36138491713999 52.08604033748995,96.94144234027863 C51.569572290014136,98.98210434844492 51.976796216629836,101.1449562464714 53.20301037156473,102.85720453579427 C54.42763469521891,104.56922570636272 56.34428986348996,105.65689742112158 58.445819697831965,105.83177886199951 C60.54734953217397,106.0068874216318 62.619126809691295,105.25035485076906 64.11084278850447,103.76431684081555 L64.78924650785814,103.09408939661978 C64.76221937608611,105.00415812101366 65.49990109033475,106.84404715030192 66.84081021623503,108.2090308641672 C68.18012951085458,109.57242474675178 70.01047955245863,110.34644546170236 71.92440929567705,110.3557573306322 C73.83833903889548,110.36665903084278 75.67686535565745,109.61421459755897 77.03231008183847,108.26422072148321 L82.63646534633529,102.6782349573374 C82.8508654504765,102.4629263781786 83.0505028355826,102.2353533862829 83.23537750165355,101.99574310040475 C84.68666634218584,103.00801138870716 86.46023669519315,103.44953024723532 88.2179087353934,103.23558438060286 C89.97535365683925,103.021411395216 91.59130359430205,102.16540080993175 92.75551432928928,100.8342577904701 C93.91949794552218,99.50175205848217 94.54793553891074,97.78814105663298 94.52227111966502,96.02229274127484 L95.49206820089708,96.98323219108579 C97.12686899497399,98.6173516288996 99.45097520861518,99.36434521207809 101.73442716522106,98.99005350484848 C104.01787912182701,98.61462620384691 105.97904956595787,97.163564482069 107.00290091073404,95.09224144206047 C108.0265251367558,93.02205399582388 107.98746071100126,90.58597823626994 106.8963822149266,88.54940436568262 C109.02607477481254,88.7176993626833 111.11920121524227,87.93027864122391 112.60864600651158,86.40131518669128 C114.09786367902646,84.87212461340428 114.82600640559087,82.76037443511487 114.5966164636601,80.64158357543945 L122.73132888953577,72.52367793738841 C126.28278485188375,68.97699146888257 128.449043531226,64.27949427189827 128.83628100745568,59.27902065656184 C129.0668065431584,56.30830734918118 129.5469355899323,53.3618957485199 130.27280712895282,50.470901123929025 L131.38682461922065,51.56924742014408 C132.90147959222685,53.0807227305889 135.3577689209212,53.0807227305889 136.87242389392745,51.56924742014408 L149.57699277682195,38.89125143151283 C151.0902850373019,37.37954900231362 151.0902850373019,34.929846117496496 149.57699277682195,33.41837080705166 L118.57891670308004,2.4845693408012437 C117.83714685125241,1.7443893202543288 116.8253328004588,1.336484037375448 115.7760441551913,1.3526094689369188 L115.77513568017375,1.338982343673706 zM115.80897637457738,3.3580680701732613 C116.30931899049173,3.3539799325942994 116.78944803726563,3.5504376551389782 117.14148210656532,3.904515793228157 L148.13297173643005,34.83150369684695 C148.48091766815077,35.17876827230454 148.6764669156779,35.65003968765737 148.6764669156779,36.14129755339623 C148.6764669156779,36.63255541913511 148.48091766815077,37.10359971573354 148.13297173643005,37.44950157866478 L135.4354435349215,50.1261348547697 C135.08749760320077,50.473399430227275 134.6153177128304,50.670084271526335 134.12315137207398,50.670084271526335 C133.6307579125632,50.670084271526335 133.15994073471916,50.474762142753605 132.8119948029984,50.12749756729602 L101.80710516662486,19.1939232198 C101.08554888393772,18.472366937112795 101.08554888393772,17.304068064546584 101.80710516662486,16.582738900613776 L114.51803337464224,3.904742911982538 C114.85939286248578,3.5613393553495456 115.32339647769817,3.3646545140504855 115.80897637457738,3.3580680701732613 zM35.662856089018675,6.850927393889435 C36.16319870493302,6.8429782374858945 36.646053176759594,7.038073247504251 37.00081267111193,7.392151385593408 L49.705154435252055,20.076506699347505 C50.426710717939244,20.799425694560995 50.426710717939244,21.96499914207459 49.705154435252055,22.687918137288094 L18.707078361510142,53.62149248478413 C18.359132429789412,53.9687570602417 17.887179658173427,54.16385207026005 17.394786198662615,54.16385207026005 C16.903755451678137,54.16385207026005 16.431802680062162,53.9687570602417 16.08385674834144,53.62149248478413 L3.3863285468329067,40.94349649615289 C3.03838261511218,40.5962319206953 2.8414706550587283,40.12518762409687 2.8414706550587283,39.63392975835799 C2.8414706550587283,39.14244477386475 3.03838261511218,38.671400477266296 3.3863285468329067,38.32549861433506 L34.38440462057481,7.391924266839027 C34.72417427713762,7.052608847784995 35.18272704224478,6.857740956521049 35.662856089018675,6.850927393889435 zM102.42532241606605,22.66634185562134 L128.62437920961273,48.79771726036071 C127.69637197918783,52.170657881760604 127.09087337999236,55.625815492248535 126.81833087472805,59.11367820336818 C126.46629680542839,63.631978703141215 124.50921449887642,67.87614686636925 121.3004807368983,71.08079249076843 L113.96999582030662,78.38947400693894 C113.6152363259543,77.62635499219897 113.12829371654877,76.9318258412838 112.53210698628317,76.33700182354451 L82.04232268485913,45.91035653584002 C86.2360704846133,46.167454965806016 90.40097420256029,45.05979680066109 93.90905048282039,42.75272449359893 C94.32445068459401,42.428398912334444 94.42302022399792,41.841524050998686 94.13298957464588,41.401367904996874 C93.8429589252938,40.96121175899505 93.26448745787037,40.81585575618743 92.80184655518423,41.06886604857445 C88.65034284374605,43.79860635755061 83.52608950726878,44.62213896095753 78.72548039579281,43.331423079776755 C77.38616110117326,42.97075849781035 75.95644854230771,43.35299936144352 74.97461416709314,44.33142695534228 L60.99818025963198,58.279016780996315 C59.68974911560903,59.538844511580464 57.81215837309253,60.01670237081052 56.058801589225624,59.53611908652783 C54.305217686604365,59.055535802245146 52.93614583516012,57.68805378208161 52.45601678838622,55.93696818575859 C51.975660622857916,54.187245301961894 52.45601678838622,52.31351557826997 53.72106825032125,51.009172571825985 L77.03912364447008,27.73949347236156 C78.62123288752925,26.16079101061821 80.63918302025687,25.089244727420805 82.83632985019574,24.664078419208536 C85.03211396760832,24.238684992241872 87.30602693652997,24.478295278120044 89.3657669200648,25.351794007492074 C91.5590527311791,26.279119881653784 93.98263695924172,26.5200928800583 96.31491944804083,26.040872308301914 C98.64697481808554,25.560516142773636 100.78007415928732,24.382451163768764 102.42532241606605,22.66634185562134 zM61.56325172054659,25.28433973743917 C63.4583306071509,25.371780457878117 65.3465959311236,25.583228018212324 67.21328497342955,25.916865468406684 C69.33752668321026,26.421750459408756 71.24918523888479,27.579147631764414 72.67867067899594,29.225531482315063 L52.282043822525836,49.57968713171482 C50.50438533193956,51.3939117417574 49.82325618753323,54.01463504862785 50.49098532543074,56.464565052199376 C51.15848734457384,58.91290522449016 53.075142512844906,60.82683496770858 55.53006912901293,61.493201393079744 C57.98363303265462,62.15956781845094 60.608444477104044,61.47980138657093 62.42811993725191,59.705776796054835 L76.40455384471308,45.758414089155195 C76.75249977643382,45.41114951369762 77.2244525480498,45.21605450367929 77.71684600756059,45.21605450367929 C78.20787675454507,45.21605450367929 78.67982952616106,45.41114951369762 79.02800257663617,45.758414089155195 L111.10125883364569,77.76376183860302 C112.36903572063338,79.06787772629261 112.85325290498625,80.94297016251085 112.37312385821235,82.69655406513215 C111.89435752396474,84.44922949273587 110.52256024746785,85.81943693795205 108.76647803854831,86.29843039095402 C107.01039582962883,86.77901367523671 105.13030678081404,86.29843039095402 103.82323834931742,85.03315181026457 L95.56996993365178,76.79714441993238 C95.170922282194,76.42694085028171 94.54907113268266,76.43647983796595 94.16183365645301,76.82008341412543 C93.77618601150405,77.20504970281124 93.7627860049952,77.82417542726992 94.13230821838269,78.22390443499089 L104.2052520941962,88.27595338540075 C105.43941540553459,89.58688283572198 105.89796817064178,91.448348146677 105.41238827376256,93.18058288638593 C104.92680837688337,94.91281762609484 103.57000093817601,96.26689963974951 101.83276958587061,96.74861851780415 C100.0969009460915,97.2319272271395 98.23407292261012,96.77292022452355 96.92019092848193,95.53989250695705 L82.2842041582812,80.93433964984416 C81.88356667554271,80.5695869302988 81.26852908866297,80.583214055562 80.88560686876664,80.96545491919517 C80.50245753011595,81.34769578282834 80.48905752360713,81.96409608223439 80.85449159941564,82.36246237742898 L90.9867134701241,92.48718932924271 C92.2074767749537,93.72952891573905 92.71463295349966,95.50219079372883 92.33557175242791,97.19967636401654 C91.9578732638825,98.89693481554986 90.74528623421085,100.28735582990646 89.11321086518655,100.8969425666809 C87.48136261491666,101.5053937096834 85.65101257331261,101.24965799224375 84.24946273999106,100.2171761348009 C84.9131037403096,98.53195497725008 84.91037831525693,96.65845237231252 84.24537460241208,94.97459392728805 C83.57923529579531,93.29073548226356 82.29919399607073,91.92030091829301 80.6630304894675,91.14105647199153 C79.02550427033793,90.36044931316374 77.15359149668109,90.22849331686498 75.42294658825288,90.77085290234089 C75.77498065755259,89.01159103085996 75.45247202632318,87.18532912683489 74.5192410645474,85.65227753472328 C73.58578298401724,84.11922594261168 72.11155514929186,82.99112708957196 70.38499837844263,82.49192006742953 C68.6584416075934,81.99248592653274 66.80810511560331,82.15805549848082 65.19760602824579,82.95478808887003 C65.38248069431673,80.98703120086194 64.7431414007176,79.03108448808194 63.43334754416833,77.55049732823372 C62.122418093847145,76.06854745585917 60.25686464531313,75.19368601396084 58.27820605709443,75.13304530653954 C56.29818475634943,75.0712690053463 54.381529588078365,75.82757445745469 52.98134246728311,77.22480903444293 L51.21435855815302,78.9881590435028 C51.24274840245137,77.07809031910898 50.5037039756764,75.23661145853995 49.16415756230245,73.87185486342906 C47.8248382676829,72.50823386209012 45.99448822607884,71.73557585966586 44.08055848286044,71.72490127820971 C42.166401620887626,71.71399957799912 40.326739710353706,72.46780672380925 38.97265769669902,73.81666500611306 L38.06213861036193,74.71832646102905 C34.79389973473441,72.43419314815998 32.08823401372325,69.43804254028797 30.151365276311736,65.95585779802798 C28.304889803146224,61.20180803120135 25.588322381924485,56.831361840534214 22.142476640366425,53.06800408034326 L48.63678781461607,26.628655644655232 C52.85733562738787,25.535533079791065 57.21665299909007,25.08333963980676 61.5718822332133,25.285248212456708 L61.56325172054659,25.28433973743917 zM43.80347360250842,73.74557683598994 C45.19412173561942,73.6824378222704 46.553654599379406,74.18573298199178 47.567739837716914,75.13872327539923 C48.58205219480884,76.09171356880665 49.16620163109194,77.41354471933843 49.187777912758705,78.80396573369501 C49.20799148189913,80.19302403552533 48.66449630265127,81.53234333014487 47.67970938362967,82.51622177414893 L45.768505065463884,84.41675151085852 C44.454850190090056,85.6416029532671 42.59611030418763,86.09379639325144 40.86432980198752,85.60912497138978 C39.133684893559334,85.12468066828251 37.78096559243093,83.77604950473307 37.29538569555172,82.04767578384875 C36.81116851119886,80.32066477549074 37.26290771367441,78.46578590841293 38.49025746238122,77.15372086431981 L40.389424486564494,75.24637756497859 C41.30130628542791,74.33790254743099 42.516618740152225,73.80212940583229 43.80347360250842,73.74557683598994 zM58.122402591585015,77.23866327846048 C59.453772729801045,77.28158872303962 60.716098766683444,77.83757543377874 61.64546870963464,78.7892030146599 C62.57483865258584,79.7421933080673 63.09948297521959,81.01542104516031 63.10765925037751,82.34520135209559 C63.115608406781064,83.673846065259 62.60708951570879,84.95366024622916 61.68998398549448,85.9173251210928 L53.970898880146834,93.62732547626496 C52.657244004773,94.85081420614719 50.79714140634428,95.30300764613153 49.06672361667049,94.81856334302427 C47.336305826996664,94.3338919211626 45.983359407113895,92.98526075761316 45.49777951023469,91.25847686800955 C45.01356232588182,89.53010314712523 45.465528647111775,87.67658699257376 46.691515683292266,86.36429482972622 L54.4106007886399,78.65452159330843 C55.40719788288962,77.7069821500063 56.74538158373724,77.195510715127 58.122402591585015,77.23866327846048 zM68.4919635606278,84.30387348992826 C69.82446929261575,84.34952435956004 71.08838516077886,84.91209751417637 72.01502967867742,85.86781323263645 C72.94280979034792,86.82489166362288 73.46223038163076,88.1022075382948 73.46359309415708,89.4335776765108 C73.46631851920974,90.76472069597244 72.95098606550584,92.04339928317069 72.02706697265994,93.00297602045535 L66.89077634220014,98.12722935693265 L62.68521836721787,102.3241568192482 C61.383600785826545,103.62441168811321 59.485796474169604,104.13315769793985 57.70677527105698,103.65802526376248 C55.928889661716326,103.18289282958509 54.538241528605326,101.79792266533374 54.06220061941039,100.02367095606326 C53.58456987893473,98.24851077177524 54.091726057480685,96.35479459769726 55.39334363887201,95.05431261007786 L64.74881936957726,85.73176909875869 C65.75359273898493,84.77082964894771 67.10108830876243,84.25527007648947 68.4919635606278,84.30387348992826 zM77.6353103747357,92.5532808867693 C78.96781610672366,92.59643345010281 80.23309468741309,93.15355575461388 81.16246463036427,94.10790876054764 C82.09183457331548,95.0608990539551 82.61511618342291,96.33685221610068 82.6205670335282,97.66663252303599 C82.62715347740541,98.99663994872571 82.11749899256122,100.27668124845027 81.19607820601354,101.23898341078757 L75.60555006677995,106.82496917493344 C74.30256977286231,108.11023420600893 72.41157902383696,108.60694292185306 70.64323240218053,108.129085062623 C68.87375018675219,107.65258991591932 67.49127832879911,106.27307060177324 67.01364758832345,104.50835788018705 C66.53488125407587,102.74228244607448 67.03386115746389,100.85651542840006 68.321851613592,99.5551249657631 L73.9194204342116,93.96913920161722 C74.91897007226835,93.02023704578875 76.25533682308088,92.50876561090948 77.6353103747357,92.5532808867693 z" stroke="currentColor" />
 
  </symbol>

  <symbol id="cake" viewBox="0 0 49 49" fill="none">
    <rect
      x="1.00391"
      y="27.47485"
      width="45.9954"
      height="19.5226"
      rx="3.79954"
      stroke="currentColor"
      stroke-width="2"
    />

    <path
      d="M9.60425 13.4009C7.50091 13.4009 5.80469 11.7071 5.80469 9.64648C5.80469 9.26165 5.97227 8.58364 6.31932 7.66932C6.653 6.79021 7.10828 5.80362 7.5855 4.84931C8.39362 3.23333 9.24052 1.75768 9.60425 1.13616C9.96801 1.75761 10.815 3.23348 11.6232 4.84965C12.1004 5.80391 12.5556 6.79043 12.8892 7.66947C13.2362 8.58372 13.4038 9.26168 13.4038 9.64648C13.4038 11.7065 11.7075 13.4009 9.60425 13.4009Z"
      stroke="currentColor"
      stroke-width="2"
    />
    <path
      d="M5.80469 15.3573C5.80469 14.5842 6.43139 13.9575 7.20446 13.9575H12.004C12.7771 13.9575 13.4038 14.5842 13.4038 15.3573V27.4061H5.80469V15.3573Z"
      stroke="currentColor"
      stroke-width="2"
    />
    <path
      d="M20.2033 15.3573C20.2033 14.5842 20.83 13.9575 21.6031 13.9575H26.4026C27.1757 13.9575 27.8024 14.5842 27.8024 15.3573V27.4061H20.2033V15.3573Z"
      stroke="currentColor"
      stroke-width="2"
    />
    <path
      d="M27.8024 9.64648V9.64675C27.8029 11.7063 26.1063 13.4009 24.0029 13.4009C21.8995 13.4009 20.2033 11.7071 20.2033 9.64648C20.2033 9.26165 20.3709 8.58364 20.7179 7.66932C21.0516 6.79021 21.5069 5.80362 21.9841 4.84931C22.7922 3.23333 23.6391 1.75768 24.0029 1.13616C24.3666 1.75761 25.2137 3.23348 26.0218 4.84965C26.499 5.80391 26.9542 6.79043 27.2878 7.66947C27.6348 8.58372 27.8024 9.26168 27.8024 9.64648Z"
      stroke="currentColor"
      stroke-width="2"
    />
    <path
      d="M34.6019 15.3573C34.6019 14.5842 35.2286 13.9575 36.0017 13.9575H40.8012C41.5743 13.9575 42.201 14.5842 42.201 15.3573V27.4061H34.6019V15.3573Z"
      stroke="currentColor"
      stroke-width="2"
    />
    <path
      d="M38.4015 13.4009C36.2981 13.4009 34.6019 11.7071 34.6019 9.64648C34.6019 9.26165 34.7695 8.58364 35.1166 7.66932C35.4502 6.79021 35.9055 5.80362 36.3827 4.84931C37.1909 3.23333 38.0378 1.75769 38.4015 1.13616C38.7653 1.75762 39.6123 3.23348 40.4204 4.84965C40.8976 5.80391 41.3528 6.79043 41.6865 7.66947C42.0335 8.58372 42.201 9.26168 42.201 9.64648C42.201 11.7065 40.5047 13.4009 38.4015 13.4009Z"
      stroke="currentColor"
      stroke-width="2"
    />
    <path
      d="M0.734375 36.4871L2.81543 38.1011C3.82907 38.887 5.59749 38.887 6.61112 38.1011L8.69282 36.4871C9.15682 36.1289 9.96348 36.1279 10.4275 36.4871L12.5085 38.1011C13.5566 38.9136 15.2599 38.9122 16.3048 38.1011L18.3859 36.4871C18.8493 36.1289 19.6559 36.1279 20.1205 36.4871L22.2022 38.1011C22.7093 38.4943 23.3834 38.7105 24.1 38.7105C24.8172 38.7105 25.4915 38.4938 25.9992 38.1011L28.0809 36.4871C28.5455 36.1279 29.3522 36.1289 29.8156 36.4871L31.8966 38.1011C32.9447 38.9136 34.648 38.9122 35.6929 38.1011L37.774 36.4871C38.2386 36.1279 39.0453 36.1289 39.5086 36.4871L41.5903 38.1011C42.6358 38.9117 44.3386 38.9132 45.386 38.1011C46.4334 37.289 47.4677 36.4871 47.4677 36.4871"
      stroke="currentColor"
      stroke-width="2"
    />
  </symbol>

  <symbol id="arrRight" viewBox="0 0 56 56">
    <path
      fill="none"
      d="M23 18L33 28L23 38"
      stroke="currentColor"
      stroke-width="2"
    />
  </symbol>

  <symbol id='arrDown' viewBox="0 0 24 24">
    <path 
      fill="none" 
      d="M2.10156 7.99683L12.1016 16.0179L22.1016 7.99683" 
      stroke="currentColor" 
      stroke-width="3"/>
  </symbol> 

  <symbol id='arrDownDir' viewBox="0 0 36 36">
    <path 
      fill="none" 
      d="M11.5713 14.7858L17.9999 21.2143L24.4284 14.7858" 
      stroke="currentColor" 
      strokeWidth="2"/>
  </symbol>

  <symbol id='arrDownReg' viewBox="0 0 8 4">
    <path
      d="M4 4L7.4641 0.25H0.535898L4 4Z" 
      fill="currentColor"/>
  </symbol>
</svg>
